<?xml version="1.0" encoding="UTF-8"?> <!-- Generator: Adobe Illustrator 26.4.1, SVG Export Plug-In . SVG Version: 6.00 Build 0) --> <svg xmlns="http://www.w3.org/2000/svg" xmlns:xlink="http://www.w3.org/1999/xlink" id="Layer_1" x="0px" y="0px" viewBox="0 0 195 75" style="enable-background:new 0 0 195 75;" xml:space="preserve"> <style type="text/css"> .st0{fill:#FFFFFF;} .st1{fill-rule:evenodd;clip-rule:evenodd;fill:#FFFFFF;} </style> <g> <g> <path class="st0" d="M44.9,44.3H27.8v-2.1c1.5-0.1,2.8-0.3,3.8-0.6c1-0.3,1.5-0.6,1.5-1.1c0-0.2,0-0.4-0.1-0.6 c0-0.3-0.1-0.5-0.2-0.7L29.4,30H14.9c-0.5,1.4-1,2.5-1.3,3.5s-0.6,1.9-0.9,2.8c-0.3,0.8-0.4,1.5-0.5,2c-0.1,0.5-0.1,0.9-0.1,1.3 c0,0.8,0.6,1.4,1.8,1.8c1.2,0.4,2.6,0.7,4.1,0.8v2.1H2.5v-2.1c0.5,0,1.1-0.1,1.9-0.3c0.8-0.2,1.4-0.4,1.9-0.7 C7,40.6,7.6,40.1,8,39.5c0.4-0.6,0.8-1.4,1.2-2.4c2.1-5.2,4.4-11,6.8-17.4s4.7-12.2,6.7-17.2h2.3L38.8,38c0.3,0.8,0.6,1.4,1,1.8 c0.4,0.5,0.9,0.9,1.5,1.4c0.4,0.3,1,0.5,1.7,0.7c0.7,0.2,1.3,0.3,1.8,0.3V44.3z M28.3,27.4l-6.2-16l-6.1,16H28.3z"></path> <path class="st0" d="M67.2,30.1c0.7,0.7,1.1,1.5,1.4,2.4c0.3,0.9,0.5,1.9,0.5,3c0,2.7-1,5-3,6.7c-2,1.8-4.5,2.7-7.5,2.7 c-1.4,0-2.8-0.2-4.1-0.6c-1.4-0.4-2.6-0.9-3.6-1.6l-0.9,1.6h-1.7l-0.3-10.6h1.8c0.4,1.3,0.8,2.5,1.3,3.5c0.5,1.1,1.1,2,1.9,2.9 c0.8,0.9,1.6,1.5,2.6,2c1,0.5,2.2,0.8,3.5,0.8c1,0,1.9-0.1,2.6-0.4c0.7-0.3,1.4-0.6,1.8-1.1c0.5-0.5,0.8-1,1-1.7 c0.2-0.6,0.3-1.4,0.3-2.2c0-1.2-0.3-2.4-1-3.5c-0.7-1.1-1.7-1.9-3.1-2.4c-0.9-0.4-2-0.8-3.2-1.2c-1.2-0.5-2.3-0.9-3.2-1.3 c-1.7-0.8-3.1-1.8-4.1-3.1c-1-1.3-1.4-2.9-1.4-5c0-1.2,0.2-2.3,0.7-3.3c0.5-1,1.2-1.9,2-2.7c0.8-0.8,1.8-1.3,3-1.8 c1.1-0.4,2.3-0.6,3.6-0.6c1.4,0,2.7,0.2,3.8,0.7c1.1,0.4,2.2,0.9,3.1,1.5l0.9-1.5h1.7l0.2,10.2H66c-0.3-1.2-0.7-2.3-1.1-3.4 c-0.4-1.1-0.9-2-1.6-2.9c-0.6-0.8-1.4-1.5-2.3-2c-0.9-0.5-2-0.8-3.3-0.8c-1.4,0-2.6,0.4-3.5,1.3c-1,0.9-1.5,2-1.5,3.2 c0,1.3,0.3,2.4,0.9,3.3c0.6,0.9,1.5,1.6,2.7,2.2c1.1,0.5,2.1,0.9,3.1,1.3c1,0.4,2,0.8,3,1.2c0.9,0.4,1.7,0.8,2.5,1.3 S66.6,29.5,67.2,30.1"></path> <path class="st0" d="M98.1,21.8h-1.5c-0.1-0.5-0.4-1.1-0.7-1.9c-0.3-0.7-0.7-1.4-1.1-2c-0.4-0.7-0.9-1.3-1.4-1.8 c-0.5-0.5-1-0.8-1.5-0.9c-0.5-0.1-1-0.1-1.7-0.1c-0.7,0-1.3,0-1.9,0H87v24.7c0,0.5,0.1,0.9,0.3,1.3c0.2,0.4,0.6,0.7,1.1,0.9 c0.3,0.1,0.8,0.2,1.6,0.4c0.8,0.2,1.5,0.3,1.9,0.3v1.5H77.3v-1.5c0.4,0,1-0.1,1.9-0.2c0.8-0.1,1.4-0.2,1.7-0.3 c0.5-0.2,0.8-0.5,1.1-0.8c0.2-0.4,0.3-0.8,0.3-1.4V15.1h-1.3c-0.4,0-1,0-1.7,0c-0.7,0-1.3,0.1-1.9,0.1c-0.5,0.1-1,0.3-1.5,0.9 c-0.5,0.5-1,1.1-1.4,1.8c-0.4,0.7-0.8,1.3-1.2,2.1c-0.3,0.7-0.6,1.3-0.7,1.8h-1.5v-8.4h26.9V21.8z"></path> <path class="st0" d="M125.5,17c1.4,1.4,2.4,3.1,3.2,5.1c0.8,2,1.2,4.2,1.2,6.7c0,2.5-0.4,4.7-1.2,6.7c-0.8,2-1.9,3.7-3.3,5.1 c-1.3,1.4-2.9,2.5-4.7,3.2c-1.8,0.8-3.7,1.1-5.7,1.1c-2.1,0-4.1-0.4-6-1.2c-1.8-0.8-3.4-1.9-4.7-3.4c-1.3-1.4-2.3-3.1-3.1-5.1 c-0.7-2-1.1-4.2-1.1-6.5c0-2.5,0.4-4.7,1.2-6.7c0.8-2,1.9-3.7,3.2-5.1c1.4-1.4,2.9-2.5,4.8-3.3c1.8-0.8,3.7-1.1,5.7-1.1 c2,0,4,0.4,5.8,1.2C122.6,14.6,124.2,15.6,125.5,17 M122.2,38.9c0.8-1.3,1.4-2.8,1.8-4.5c0.4-1.7,0.6-3.5,0.6-5.6 c0-2.1-0.2-4.1-0.6-5.8c-0.4-1.8-1-3.3-1.8-4.5c-0.8-1.2-1.8-2.2-3-2.9c-1.2-0.7-2.6-1-4.1-1c-1.7,0-3.2,0.4-4.4,1.2 c-1.2,0.8-2.2,1.9-3,3.2c-0.7,1.3-1.3,2.8-1.6,4.5c-0.4,1.7-0.5,3.5-0.5,5.4c0,2.1,0.2,4,0.6,5.7c0.4,1.7,1,3.2,1.8,4.5 c0.8,1.3,1.8,2.3,3,3c1.2,0.7,2.6,1.1,4.3,1.1c1.6,0,3-0.4,4.2-1.1C120.4,41.3,121.5,40.2,122.2,38.9"></path> <path class="st0" d="M165.4,14.9c-0.4,0-1,0.1-1.9,0.3c-0.8,0.2-1.4,0.4-1.8,0.7c-0.5,0.4-0.9,1.1-1.1,2.1c-0.2,1-0.3,2.3-0.3,3.9 v22.6h-1.9l-18.7-25.3v15.9c0,1.8,0.1,3.2,0.3,4.1c0.2,1,0.6,1.6,1,2c0.3,0.3,1,0.6,2.1,0.9c1,0.3,1.7,0.4,2.1,0.4v1.5h-12.7v-1.5 c0.4,0,1.1-0.2,2-0.4c0.9-0.3,1.5-0.5,1.7-0.7c0.5-0.4,0.9-1,1-1.9c0.2-0.8,0.3-2.3,0.3-4.3V20.3c0-0.7-0.1-1.3-0.3-2 c-0.2-0.7-0.5-1.2-0.9-1.5c-0.5-0.5-1.2-0.9-2.1-1.2c-0.9-0.3-1.6-0.5-2.2-0.6v-1.5h8.8l17.4,23.5V22.2c0-1.8-0.1-3.2-0.3-4.1 c-0.2-1-0.6-1.6-1-1.9c-0.4-0.3-1.1-0.5-2-0.8c-0.9-0.3-1.6-0.4-2.1-0.4v-1.5h12.6V14.9z"></path> <path class="st0" d="M190,30.1c0.7,0.7,1.1,1.5,1.4,2.4c0.3,0.9,0.5,1.9,0.5,3c0,2.7-1,5-3,6.7c-2,1.8-4.5,2.7-7.5,2.7 c-1.4,0-2.8-0.2-4.1-0.6c-1.4-0.4-2.6-0.9-3.6-1.6l-0.9,1.6H171l-0.3-10.6h1.8c0.4,1.3,0.8,2.5,1.3,3.5c0.5,1.1,1.1,2,1.9,2.9 c0.8,0.9,1.6,1.5,2.6,2c1,0.5,2.2,0.8,3.5,0.8c1,0,1.9-0.1,2.6-0.4c0.7-0.3,1.4-0.6,1.8-1.1c0.5-0.5,0.8-1,1-1.7 c0.2-0.6,0.3-1.4,0.3-2.2c0-1.2-0.3-2.4-1-3.5c-0.7-1.1-1.7-1.9-3.1-2.4c-0.9-0.4-2-0.8-3.2-1.2c-1.2-0.5-2.3-0.9-3.2-1.3 c-1.7-0.8-3.1-1.8-4.1-3.1c-1-1.3-1.4-2.9-1.4-5c0-1.2,0.2-2.3,0.7-3.3c0.5-1,1.2-1.9,2-2.7c0.8-0.8,1.8-1.3,3-1.8 s2.3-0.6,3.6-0.6c1.4,0,2.7,0.2,3.8,0.7c1.1,0.4,2.2,0.9,3.1,1.5l0.9-1.5h1.7l0.2,10.2h-1.8c-0.3-1.2-0.7-2.3-1.1-3.4 s-0.9-2-1.6-2.9c-0.6-0.8-1.4-1.5-2.3-2c-0.9-0.5-2-0.8-3.3-0.8c-1.4,0-2.6,0.4-3.5,1.3c-1,0.9-1.5,2-1.5,3.2 c0,1.3,0.3,2.4,0.9,3.3c0.6,0.9,1.5,1.6,2.7,2.2c1.1,0.5,2.1,0.9,3.1,1.3c1,0.4,2,0.8,3,1.2c0.9,0.4,1.7,0.8,2.5,1.3 C188.7,28.9,189.4,29.5,190,30.1"></path> <path class="st1" d="M165.3,23.5c0.6,0.4,1.3,0.7,1.9,1c0.6,0.3,1.5,0.7,1.1,1.5c-0.5,1-1.8,0-3-0.6c-5.2-2.7-10.5-5.4-15.8-8.1 c-1.1-0.6-2.7-1-2.2-2.1c0.7-1.3,2.6,0.6,3.8,1c1.4-2.7,2.2-5.1,4.2-6c1.8-0.8,3.9-0.4,6.4,0.7c3.1,1.4,5.6,3.4,6,5.8 C168.1,18.8,166.6,21,165.3,23.5"></path> <rect x="122.7" y="55" class="st0" width="1" height="18"></rect> <path class="st0" d="M23.4,60.8c0.3,0.4,0.6,0.8,0.8,1.3c0.2,0.5,0.3,1.1,0.3,1.7c0,0.6-0.1,1.2-0.3,1.7c-0.2,0.5-0.5,0.9-0.8,1.3 c-0.3,0.4-0.7,0.6-1.2,0.8c-0.5,0.2-0.9,0.3-1.4,0.3c-0.5,0-1.1-0.1-1.5-0.3c-0.5-0.2-0.9-0.5-1.2-0.9c-0.3-0.4-0.6-0.8-0.8-1.3 c-0.2-0.5-0.3-1.1-0.3-1.6c0-0.6,0.1-1.2,0.3-1.7c0.2-0.5,0.5-0.9,0.8-1.3c0.3-0.4,0.8-0.6,1.2-0.8c0.5-0.2,0.9-0.3,1.4-0.3 c0.5,0,1,0.1,1.5,0.3C22.7,60.2,23.1,60.4,23.4,60.8 M22.6,66.3c0.2-0.3,0.4-0.7,0.5-1.1c0.1-0.4,0.1-0.9,0.1-1.4 c0-0.5-0.1-1-0.2-1.5c-0.1-0.5-0.3-0.8-0.5-1.2c-0.2-0.3-0.5-0.6-0.8-0.7c-0.3-0.2-0.7-0.3-1.1-0.3c-0.4,0-0.8,0.1-1.1,0.3 c-0.3,0.2-0.6,0.5-0.8,0.8c-0.2,0.3-0.3,0.7-0.4,1.1c-0.1,0.4-0.1,0.9-0.1,1.4c0,0.5,0,1,0.1,1.4c0.1,0.4,0.2,0.8,0.5,1.1 c0.2,0.3,0.5,0.6,0.8,0.8c0.3,0.2,0.7,0.3,1.1,0.3c0.4,0,0.8-0.1,1.1-0.3C22.2,66.9,22.4,66.7,22.6,66.3"></path> <path class="st0" d="M31.6,61.8h-0.4c-0.1-0.3-0.2-0.6-0.5-0.9c-0.2-0.3-0.5-0.5-0.7-0.5c-0.1,0-0.2,0-0.4,0c-0.2,0-0.3,0-0.5,0 h-1.3v3.2h0.9c0.3,0,0.5,0,0.6-0.1c0.2-0.1,0.3-0.1,0.4-0.3c0.1-0.1,0.1-0.2,0.2-0.4c0.1-0.2,0.1-0.4,0.1-0.6h0.4v3.1H30 c0-0.2,0-0.3-0.1-0.6c-0.1-0.2-0.1-0.4-0.2-0.4c-0.1-0.1-0.3-0.2-0.4-0.3c-0.2,0-0.4-0.1-0.6-0.1h-0.9v2.7c0,0.1,0,0.2,0.1,0.3 c0,0.1,0.1,0.2,0.3,0.2c0.1,0,0.2,0.1,0.4,0.1c0.2,0,0.3,0.1,0.4,0.1v0.4h-3.4v-0.4c0.1,0,0.3,0,0.4,0c0.2,0,0.3,0,0.4-0.1 c0.1,0,0.2-0.1,0.2-0.2c0.1-0.1,0.1-0.2,0.1-0.3V61c0-0.1,0-0.2-0.1-0.3c0-0.1-0.1-0.2-0.3-0.2c-0.1,0-0.2-0.1-0.4-0.1 c-0.2,0-0.3-0.1-0.4-0.1v-0.4h6.2V61.8z"></path> <path class="st0" d="M44.5,67.7H41v-0.4c0.1,0,0.3,0,0.5,0c0.2,0,0.3-0.1,0.4-0.1c0.1-0.1,0.2-0.2,0.3-0.2 c0.1-0.1,0.1-0.2,0.1-0.3v-5.7h-0.1l-2.7,6.7h-0.3l-2.6-6.8h-0.1v4.7c0,0.5,0,0.8,0.1,1c0.1,0.2,0.1,0.4,0.3,0.5 c0.1,0.1,0.2,0.2,0.5,0.2c0.3,0.1,0.4,0.1,0.5,0.1v0.4h-3.2v-0.4c0.2,0,0.3,0,0.5-0.1c0.2,0,0.3-0.1,0.4-0.2 c0.1-0.1,0.2-0.3,0.3-0.5c0-0.2,0.1-0.6,0.1-1.1v-4c0-0.2,0-0.4-0.1-0.6c-0.1-0.1-0.1-0.3-0.2-0.4c-0.1-0.1-0.3-0.2-0.4-0.2 c-0.2,0-0.3-0.1-0.5-0.1v-0.4h2.7l2.2,5.9l1.9-4.9c0.1-0.2,0.1-0.4,0.2-0.6c0-0.2,0.1-0.3,0.1-0.4h2.6v0.4c-0.1,0-0.2,0-0.4,0 c-0.2,0-0.3,0.1-0.4,0.1c-0.1,0-0.2,0.1-0.3,0.2c0,0.1-0.1,0.2-0.1,0.3v5.7c0,0.1,0,0.2,0.1,0.3c0,0.1,0.1,0.2,0.3,0.2 c0.1,0,0.2,0.1,0.4,0.1c0.2,0,0.3,0,0.4,0.1V67.7z"></path> <path class="st0" d="M52.9,67.7h-3.3v-0.4c0.3,0,0.5-0.1,0.7-0.1c0.2-0.1,0.3-0.1,0.3-0.2c0,0,0-0.1,0-0.1c0,0,0-0.1,0-0.1 L49.9,65h-2.8c-0.1,0.3-0.2,0.5-0.3,0.7c-0.1,0.2-0.1,0.4-0.2,0.5c0,0.2-0.1,0.3-0.1,0.4c0,0.1,0,0.2,0,0.2c0,0.1,0.1,0.3,0.3,0.3 c0.2,0.1,0.5,0.1,0.8,0.1v0.4h-3v-0.4c0.1,0,0.2,0,0.4-0.1c0.1,0,0.3-0.1,0.4-0.1c0.1-0.1,0.3-0.2,0.3-0.3 c0.1-0.1,0.2-0.3,0.2-0.4c0.4-1,0.8-2.1,1.3-3.3c0.5-1.2,0.9-2.3,1.3-3.3h0.4l2.6,6.8c0.1,0.1,0.1,0.3,0.2,0.3 c0.1,0.1,0.2,0.2,0.3,0.3c0.1,0.1,0.2,0.1,0.3,0.1c0.1,0,0.2,0.1,0.3,0.1V67.7z M49.7,64.5l-1.2-3l-1.2,3H49.7z"></path> <path class="st0" d="M61.2,60.2c-0.1,0-0.3,0-0.5,0.1c-0.2,0.1-0.4,0.1-0.5,0.2c-0.1,0.1-0.2,0.3-0.3,0.5c0,0.3-0.1,0.6-0.1,1v5.7 h-0.5l-4.8-6.4v4.1c0,0.5,0,0.8,0.1,1c0.1,0.2,0.1,0.4,0.3,0.5c0.1,0.1,0.3,0.2,0.5,0.2c0.3,0.1,0.4,0.1,0.5,0.1v0.4h-3.2v-0.4 c0.1,0,0.3,0,0.5-0.1s0.4-0.1,0.4-0.2c0.1-0.1,0.2-0.3,0.3-0.5c0-0.2,0.1-0.6,0.1-1.1v-3.9c0-0.2,0-0.3-0.1-0.5 c-0.1-0.2-0.1-0.3-0.2-0.4c-0.1-0.1-0.3-0.2-0.5-0.3c-0.2-0.1-0.4-0.1-0.6-0.1v-0.4H55l4.4,6v-3.7c0-0.5,0-0.8-0.1-1.1 c-0.1-0.2-0.1-0.4-0.3-0.5c-0.1-0.1-0.3-0.1-0.5-0.2c-0.2-0.1-0.4-0.1-0.5-0.1v-0.4h3.2V60.2z"></path> <path class="st0" d="M65.3,67.9c-0.5,0-0.9-0.1-1.3-0.3c-0.4-0.2-0.8-0.5-1.1-0.8c-0.3-0.3-0.6-0.8-0.8-1.3 c-0.2-0.5-0.3-1.1-0.3-1.7s0.1-1.2,0.3-1.7c0.2-0.5,0.5-1,0.8-1.3c0.3-0.4,0.7-0.6,1.2-0.8c0.5-0.2,0.9-0.3,1.5-0.3 c0.4,0,0.7,0,1.1,0.1c0.3,0.1,0.6,0.2,0.9,0.4l0.2-0.4h0.4l0.1,2.8h-0.5c-0.1-0.3-0.1-0.6-0.3-0.9c-0.1-0.3-0.3-0.6-0.4-0.8 c-0.2-0.3-0.4-0.4-0.6-0.6c-0.2-0.1-0.5-0.2-0.8-0.2c-0.4,0-0.7,0.1-1,0.2c-0.3,0.2-0.6,0.4-0.8,0.7c-0.2,0.3-0.4,0.7-0.5,1.1 c-0.1,0.5-0.2,1-0.2,1.5c0,0.5,0.1,1,0.2,1.4c0.1,0.4,0.3,0.8,0.5,1.1c0.2,0.3,0.5,0.6,0.8,0.7c0.3,0.2,0.7,0.3,1.1,0.3 c0.3,0,0.6,0,0.8-0.1c0.2-0.1,0.5-0.2,0.7-0.4c0.2-0.2,0.3-0.3,0.5-0.6c0.1-0.2,0.3-0.4,0.3-0.7l0.4,0.2c-0.3,0.8-0.7,1.3-1.3,1.7 C66.7,67.7,66,67.9,65.3,67.9"></path> <path class="st0" d="M77.3,67.7H74v-0.4c0.1,0,0.2,0,0.4,0c0.2,0,0.3,0,0.3-0.1c0.1,0,0.2-0.1,0.2-0.2c0.1-0.1,0.1-0.2,0.1-0.4 v-2.8h-3.7v2.7c0,0.1,0,0.2,0.1,0.3c0,0.1,0.1,0.2,0.3,0.2c0.1,0,0.2,0.1,0.3,0.1c0.2,0,0.3,0.1,0.4,0.1v0.4h-3.3v-0.4 c0.1,0,0.2,0,0.4,0c0.2,0,0.3,0,0.3-0.1c0.1,0,0.2-0.1,0.2-0.2c0.1-0.1,0.1-0.2,0.1-0.4V61c0-0.1,0-0.2-0.1-0.3 c0-0.1-0.1-0.2-0.2-0.2c-0.1,0-0.2-0.1-0.4-0.1c-0.1,0-0.3-0.1-0.4-0.1v-0.4h3.3v0.4c-0.1,0-0.2,0-0.4,0c-0.2,0-0.3,0.1-0.3,0.1 c-0.1,0-0.2,0.1-0.3,0.2c0,0.1-0.1,0.2-0.1,0.3v2.4h3.7V61c0-0.1,0-0.2-0.1-0.3c0-0.1-0.1-0.2-0.2-0.2c-0.1,0-0.2-0.1-0.4-0.1 c-0.1,0-0.3-0.1-0.4-0.1v-0.4h3.3v0.4c-0.1,0-0.2,0-0.4,0c-0.2,0-0.3,0.1-0.3,0.1c-0.1,0-0.2,0.1-0.3,0.2c0,0.1-0.1,0.2-0.1,0.3 v5.7c0,0.1,0,0.2,0.1,0.3c0,0.1,0.1,0.2,0.3,0.2c0.1,0,0.2,0.1,0.3,0.1c0.2,0,0.3,0.1,0.4,0.1V67.7z"></path> <path class="st0" d="M85,65.4l-0.1,2.3h-6.5v-0.4c0.1,0,0.3,0,0.4,0c0.2,0,0.3-0.1,0.4-0.1c0.1-0.1,0.2-0.1,0.2-0.2 c0-0.1,0.1-0.2,0.1-0.3V61c0-0.1,0-0.2-0.1-0.3c0-0.1-0.1-0.2-0.3-0.2c-0.1,0-0.2-0.1-0.4-0.1c-0.2,0-0.3-0.1-0.4-0.1v-0.4h6.1 v1.9H84c-0.1-0.3-0.2-0.6-0.5-0.9c-0.2-0.3-0.5-0.5-0.7-0.5c-0.1,0-0.2,0-0.4,0c-0.2,0-0.3,0-0.5,0h-1.2v3.1h0.9 c0.3,0,0.5,0,0.6-0.1c0.1-0.1,0.2-0.1,0.3-0.3c0.1-0.1,0.2-0.2,0.2-0.4c0.1-0.2,0.1-0.3,0.1-0.5h0.4v3.1h-0.4 c0-0.2-0.1-0.4-0.1-0.6c-0.1-0.2-0.1-0.3-0.2-0.4c-0.1-0.1-0.2-0.2-0.4-0.3c-0.1,0-0.3-0.1-0.6-0.1h-0.9v2.4c0,0.2,0,0.4,0,0.6 c0,0.1,0.1,0.2,0.2,0.3c0.1,0.1,0.2,0.1,0.4,0.1c0.2,0,0.4,0,0.7,0h0.5c0.2,0,0.4,0,0.5,0c0.1,0,0.3,0,0.4-0.1 c0.2,0,0.3-0.1,0.3-0.2c0.2-0.2,0.3-0.4,0.5-0.8c0.2-0.4,0.3-0.6,0.4-0.8H85z"></path> <path class="st0" d="M90.7,64.1c0.2,0.2,0.3,0.4,0.4,0.6c0.1,0.2,0.1,0.5,0.1,0.8c0,0.7-0.3,1.3-0.8,1.7c-0.5,0.4-1.1,0.7-1.9,0.7 c-0.4,0-0.7-0.1-1.1-0.2c-0.4-0.1-0.7-0.2-0.9-0.4l-0.2,0.4h-0.4L85.8,65h0.4c0.1,0.3,0.2,0.6,0.3,0.9c0.1,0.3,0.3,0.5,0.5,0.8 c0.2,0.2,0.4,0.4,0.7,0.5c0.3,0.1,0.6,0.2,0.9,0.2c0.3,0,0.5,0,0.7-0.1c0.2-0.1,0.3-0.2,0.5-0.3c0.1-0.1,0.2-0.3,0.3-0.4 c0.1-0.2,0.1-0.4,0.1-0.6c0-0.3-0.1-0.6-0.3-0.9c-0.2-0.3-0.4-0.5-0.8-0.6c-0.2-0.1-0.5-0.2-0.8-0.3c-0.3-0.1-0.6-0.2-0.8-0.3 c-0.4-0.2-0.8-0.5-1-0.8c-0.2-0.3-0.4-0.7-0.4-1.3c0-0.3,0.1-0.6,0.2-0.8c0.1-0.3,0.3-0.5,0.5-0.7c0.2-0.2,0.5-0.3,0.8-0.5 c0.3-0.1,0.6-0.2,0.9-0.2c0.4,0,0.7,0.1,1,0.2c0.3,0.1,0.5,0.2,0.8,0.4l0.2-0.4h0.4l0,2.6h-0.4c-0.1-0.3-0.2-0.6-0.3-0.9 c-0.1-0.3-0.2-0.5-0.4-0.7c-0.2-0.2-0.4-0.4-0.6-0.5c-0.2-0.1-0.5-0.2-0.8-0.2c-0.4,0-0.6,0.1-0.9,0.3C87.1,60.7,87,61,87,61.3 c0,0.3,0.1,0.6,0.2,0.8c0.2,0.2,0.4,0.4,0.7,0.5c0.3,0.1,0.5,0.2,0.8,0.3c0.3,0.1,0.5,0.2,0.8,0.3c0.2,0.1,0.4,0.2,0.6,0.3 C90.3,63.8,90.5,63.9,90.7,64.1"></path> <path class="st0" d="M98.5,62h-0.4c0-0.1-0.1-0.3-0.2-0.5c-0.1-0.2-0.2-0.4-0.3-0.5c-0.1-0.2-0.2-0.3-0.4-0.4 c-0.1-0.1-0.3-0.2-0.4-0.2c-0.1,0-0.3,0-0.4,0c-0.2,0-0.3,0-0.5,0h-0.3v6.3c0,0.1,0,0.2,0.1,0.3c0.1,0.1,0.1,0.2,0.3,0.2 c0.1,0,0.2,0.1,0.4,0.1c0.2,0,0.4,0.1,0.5,0.1v0.4h-3.7v-0.4c0.1,0,0.3,0,0.5,0c0.2,0,0.4-0.1,0.4-0.1c0.1,0,0.2-0.1,0.3-0.2 c0.1-0.1,0.1-0.2,0.1-0.4v-6.3h-0.3c-0.1,0-0.3,0-0.4,0c-0.2,0-0.3,0-0.5,0c-0.1,0-0.2,0.1-0.4,0.2c-0.1,0.1-0.3,0.3-0.4,0.4 c-0.1,0.2-0.2,0.3-0.3,0.5c-0.1,0.2-0.1,0.3-0.2,0.5h-0.4v-2.1h6.8V62z"></path> <path class="st0" d="M105.8,65.4l-0.1,2.3h-6.5v-0.4c0.1,0,0.3,0,0.4,0c0.2,0,0.3-0.1,0.4-0.1c0.1-0.1,0.2-0.1,0.2-0.2 c0-0.1,0.1-0.2,0.1-0.3V61c0-0.1,0-0.2-0.1-0.3c0-0.1-0.1-0.2-0.3-0.2c-0.1,0-0.2-0.1-0.4-0.1c-0.2,0-0.3-0.1-0.4-0.1v-0.4h6.1 v1.9h-0.4c-0.1-0.3-0.2-0.6-0.5-0.9c-0.2-0.3-0.5-0.5-0.7-0.5c-0.1,0-0.3,0-0.4,0c-0.2,0-0.3,0-0.5,0h-1.2v3.1h0.9 c0.3,0,0.5,0,0.6-0.1c0.1-0.1,0.2-0.1,0.3-0.3c0.1-0.1,0.2-0.2,0.2-0.4c0.1-0.2,0.1-0.3,0.1-0.5h0.4v3.1h-0.4 c0-0.2-0.1-0.4-0.1-0.6c-0.1-0.2-0.1-0.3-0.2-0.4c-0.1-0.1-0.2-0.2-0.4-0.3c-0.1,0-0.3-0.1-0.6-0.1h-0.9v2.4c0,0.2,0,0.4,0.1,0.6 c0,0.1,0.1,0.2,0.2,0.3c0.1,0.1,0.2,0.1,0.4,0.1c0.2,0,0.4,0,0.7,0h0.5c0.2,0,0.4,0,0.5,0c0.1,0,0.3,0,0.4-0.1 c0.2,0,0.3-0.1,0.3-0.2c0.2-0.2,0.3-0.4,0.5-0.8c0.2-0.4,0.3-0.6,0.4-0.8H105.8z"></path> <path class="st0" d="M114.2,67.7h-2.1c-0.5-0.7-0.9-1.4-1.3-1.9c-0.4-0.5-0.8-1.1-1.2-1.7h-0.8v2.5c0,0.1,0,0.2,0.1,0.3 c0,0.1,0.1,0.2,0.3,0.2c0.1,0,0.2,0,0.3,0.1c0.2,0,0.3,0,0.4,0v0.4h-3.3v-0.4c0.1,0,0.2,0,0.4,0c0.2,0,0.3,0,0.4-0.1 c0.1,0,0.2-0.1,0.2-0.2c0.1-0.1,0.1-0.2,0.1-0.4V61c0-0.1,0-0.2-0.1-0.3c0-0.1-0.1-0.2-0.3-0.2c-0.1,0-0.2-0.1-0.4-0.1 c-0.1,0-0.3,0-0.4-0.1v-0.4h3.6c0.3,0,0.6,0,0.9,0.1c0.3,0.1,0.6,0.2,0.8,0.3c0.2,0.1,0.4,0.3,0.5,0.6c0.1,0.2,0.2,0.5,0.2,0.9 c0,0.3,0,0.6-0.1,0.8c-0.1,0.2-0.2,0.4-0.4,0.6c-0.2,0.2-0.4,0.3-0.6,0.4c-0.2,0.1-0.5,0.2-0.8,0.3c0.4,0.5,0.7,0.9,1,1.3 c0.3,0.3,0.6,0.8,0.9,1.3c0.2,0.2,0.3,0.4,0.4,0.5c0.1,0.1,0.3,0.2,0.4,0.3c0.1,0,0.2,0.1,0.4,0.1c0.1,0,0.3,0,0.4,0V67.7z M111.3,61.9c0-0.5-0.1-0.9-0.4-1.1c-0.3-0.3-0.7-0.4-1.2-0.4h-0.9v3.4h0.7c0.5,0,0.9-0.2,1.3-0.5 C111.1,62.9,111.3,62.4,111.3,61.9"></path> <path class="st0" d="M139.2,65.4l-0.1,2.3h-6.5v-0.4c0.1,0,0.3,0,0.4,0c0.2,0,0.3-0.1,0.4-0.1c0.1-0.1,0.2-0.1,0.2-0.2 c0-0.1,0.1-0.2,0.1-0.3V61c0-0.1,0-0.2-0.1-0.3c0-0.1-0.1-0.2-0.3-0.2c-0.1,0-0.2-0.1-0.4-0.1c-0.2,0-0.3-0.1-0.4-0.1v-0.4h6.1 v1.9h-0.4c-0.1-0.3-0.2-0.6-0.5-0.9c-0.2-0.3-0.5-0.5-0.7-0.5c-0.1,0-0.3,0-0.4,0c-0.2,0-0.3,0-0.5,0h-1.2v3.1h0.9 c0.3,0,0.5,0,0.6-0.1c0.1-0.1,0.2-0.1,0.3-0.3c0.1-0.1,0.2-0.2,0.2-0.4c0.1-0.2,0.1-0.3,0.1-0.5h0.4v3.1H137 c0-0.2-0.1-0.4-0.1-0.6c-0.1-0.2-0.1-0.3-0.2-0.4c-0.1-0.1-0.2-0.2-0.4-0.3c-0.1,0-0.3-0.1-0.6-0.1h-0.9v2.4c0,0.2,0,0.4,0,0.6 c0,0.1,0.1,0.2,0.2,0.3c0.1,0.1,0.2,0.1,0.4,0.1c0.2,0,0.4,0,0.7,0h0.5c0.2,0,0.4,0,0.5,0c0.1,0,0.3,0,0.4-0.1 c0.1,0,0.3-0.1,0.3-0.2c0.2-0.2,0.3-0.4,0.5-0.8c0.2-0.4,0.3-0.6,0.4-0.8H139.2z"></path> <path class="st0" d="M143.4,65c0.2,0.1,0.3,0.3,0.3,0.5c0.1,0.2,0.1,0.4,0.1,0.6c0,0.5-0.2,0.9-0.6,1.2c-0.4,0.3-0.9,0.5-1.5,0.5 c-0.3,0-0.6-0.1-0.9-0.2c-0.3-0.1-0.5-0.2-0.6-0.3l-0.1,0.4h-0.4l-0.1-1.9h0.4c0,0.1,0.1,0.3,0.2,0.5c0.1,0.2,0.2,0.4,0.3,0.5 c0.1,0.2,0.3,0.3,0.5,0.4c0.2,0.1,0.4,0.2,0.7,0.2c0.4,0,0.6-0.1,0.8-0.2c0.2-0.2,0.3-0.4,0.3-0.7c0-0.2,0-0.3-0.1-0.4 c-0.1-0.1-0.1-0.2-0.3-0.3c-0.1-0.1-0.3-0.2-0.4-0.2c-0.2-0.1-0.4-0.1-0.6-0.2c-0.2-0.1-0.4-0.1-0.6-0.2c-0.2-0.1-0.4-0.2-0.5-0.3 c-0.2-0.1-0.3-0.3-0.4-0.5c-0.1-0.2-0.2-0.4-0.2-0.7c0-0.4,0.2-0.8,0.5-1.1c0.3-0.3,0.8-0.5,1.3-0.5c0.2,0,0.4,0,0.7,0.1 c0.2,0.1,0.4,0.1,0.5,0.2l0.1-0.3h0.4l0.1,1.8h-0.4c-0.1-0.4-0.2-0.7-0.5-1c-0.3-0.2-0.6-0.4-0.9-0.4c-0.3,0-0.5,0.1-0.7,0.2 c-0.2,0.2-0.3,0.3-0.3,0.6c0,0.2,0,0.3,0.1,0.4c0.1,0.1,0.1,0.2,0.3,0.3c0.1,0.1,0.2,0.1,0.4,0.2c0.2,0.1,0.4,0.1,0.6,0.2 c0.2,0.1,0.5,0.2,0.7,0.3C143.1,64.8,143.3,64.9,143.4,65"></path> <path class="st0" d="M148.1,67.5c-0.2,0.1-0.5,0.2-0.7,0.3s-0.5,0.1-0.8,0.1c-0.5,0-0.8-0.1-1-0.3c-0.2-0.2-0.3-0.6-0.3-1v-3.7h-1 v-0.5h1v-1.7h1v1.7h1.6v0.5h-1.6v3c0,0.2,0,0.4,0,0.6c0,0.2,0.1,0.3,0.1,0.4c0.1,0.1,0.1,0.2,0.3,0.2c0.1,0.1,0.3,0.1,0.5,0.1 c0.1,0,0.2,0,0.4,0c0.2,0,0.3,0,0.4-0.1V67.5z"></path> <path class="st0" d="M150.6,67.1c0,0.2-0.1,0.4-0.2,0.5c-0.2,0.1-0.3,0.2-0.5,0.2c-0.2,0-0.4-0.1-0.5-0.2 c-0.1-0.1-0.2-0.3-0.2-0.5s0.1-0.4,0.2-0.5c0.1-0.2,0.3-0.2,0.5-0.2c0.2,0,0.4,0.1,0.5,0.2C150.5,66.7,150.6,66.9,150.6,67.1"></path> <path class="st0" d="M158.5,67.7h-3.7v-0.4c0.1,0,0.3,0,0.5,0c0.2,0,0.4,0,0.5-0.1c0.1,0,0.2-0.1,0.3-0.2c0.1-0.1,0.1-0.2,0.1-0.4 v-3.9h-1.4v-0.5h0.3c0.4,0,0.8-0.1,1.1-0.2c0.3-0.1,0.5-0.3,0.7-0.5h0.5c0,0.2,0,0.5,0,0.8c0,0.3,0,0.6,0,0.9v3.3 c0,0.1,0,0.2,0.1,0.3c0.1,0.1,0.1,0.2,0.2,0.2c0.1,0,0.3,0.1,0.5,0.1c0.2,0,0.4,0.1,0.5,0.1V67.7z"></path> <path class="st0" d="M164.8,64.9c0,0.6-0.1,1.2-0.3,1.8c-0.2,0.6-0.5,1.1-0.9,1.5c-0.4,0.4-0.8,0.8-1.4,1 c-0.5,0.3-1.1,0.5-1.8,0.6l-0.1-0.5l0.5-0.1c0.8-0.3,1.4-0.6,1.9-1.2c0.4-0.5,0.7-1.2,0.9-2c-0.3,0.3-0.6,0.4-0.9,0.6 c-0.3,0.1-0.6,0.2-1,0.2c-0.6,0-1.1-0.2-1.6-0.7c-0.4-0.5-0.7-1.1-0.7-1.8c0-0.8,0.3-1.4,0.8-1.9c0.5-0.5,1.2-0.8,1.9-0.8 c0.8,0,1.5,0.3,2,0.9C164.5,63.1,164.8,63.9,164.8,64.9 M163.6,64.8c0-0.9-0.1-1.5-0.4-2c-0.3-0.5-0.7-0.7-1.1-0.7 c-0.4,0-0.8,0.2-1.1,0.6c-0.3,0.4-0.4,0.9-0.4,1.6c0,0.6,0.1,1.1,0.4,1.4c0.3,0.4,0.6,0.5,1.1,0.5c0.3,0,0.6-0.1,0.8-0.2 c0.2-0.1,0.5-0.3,0.7-0.5c0,0,0,0,0-0.1c0,0,0-0.1,0-0.2c0-0.1,0-0.1,0-0.2C163.6,65,163.6,64.9,163.6,64.8"></path> <path class="st0" d="M171,62.1l-3.9,7.6h-0.7l3.7-7h-2.2c-0.3,0-0.6,0-0.8,0c-0.2,0-0.3,0-0.5,0.1c-0.1,0-0.2,0.2-0.3,0.4 c-0.1,0.2-0.2,0.4-0.2,0.8h-0.3v-2.2h5.2V62.1z"></path> <path class="st0" d="M177.2,65.6c0,0.6-0.3,1.2-0.8,1.6c-0.5,0.4-1.2,0.7-2.1,0.7c-0.8,0-1.5-0.2-2-0.6c-0.5-0.4-0.7-0.9-0.7-1.6 c0-0.5,0.1-0.9,0.4-1.2c0.3-0.3,0.7-0.6,1.3-0.8c-0.5-0.3-0.8-0.5-1.1-0.9c-0.2-0.3-0.3-0.7-0.3-1.1c0-0.6,0.3-1.1,0.8-1.5 c0.5-0.4,1.1-0.6,1.8-0.6c0.7,0,1.3,0.2,1.7,0.6c0.4,0.4,0.7,0.9,0.7,1.4c0,0.4-0.1,0.7-0.4,1.1c-0.2,0.3-0.6,0.6-1.1,0.8 c0.6,0.3,1.1,0.6,1.3,0.9C177.1,64.8,177.2,65.2,177.2,65.6 M176.1,65.9c0-0.2,0-0.4-0.1-0.6c-0.1-0.2-0.2-0.3-0.4-0.5 c-0.2-0.1-0.4-0.3-0.8-0.4c-0.3-0.2-0.7-0.3-1-0.5c-0.4,0.2-0.6,0.4-0.8,0.7s-0.2,0.6-0.2,1c0,0.5,0.2,1,0.5,1.3 c0.3,0.3,0.7,0.5,1.3,0.5c0.5,0,0.9-0.1,1.2-0.4S176.1,66.4,176.1,65.9 M175.9,61.6c0-0.5-0.1-0.8-0.4-1.1c-0.3-0.3-0.6-0.4-1-0.4 c-0.4,0-0.8,0.1-1,0.4c-0.3,0.3-0.4,0.6-0.4,1c0,0.4,0.2,0.7,0.5,1c0.3,0.3,0.8,0.6,1.6,0.9c0.3-0.2,0.5-0.4,0.6-0.7 C175.8,62.4,175.9,62,175.9,61.6"></path> </g> </g> </svg> 