<?xml version="1.0" encoding="UTF-8"?> <!-- Generator: Adobe Illustrator 24.0.1, SVG Export Plug-In . SVG Version: 6.00 Build 0) --> <svg xmlns="http://www.w3.org/2000/svg" xmlns:xlink="http://www.w3.org/1999/xlink" id="Layer_1" x="0px" y="0px" viewBox="0 0 715.5 239.6" style="enable-background:new 0 0 715.5 239.6;" xml:space="preserve"> <style type="text/css"> .st0{fill:#FFFFFF;} .st1{fill:#00B4CD;} .st2{fill-rule:evenodd;clip-rule:evenodd;fill:#00B4CD;} .st3{fill-rule:evenodd;clip-rule:evenodd;} </style> <g> <g> <path class="st0" d="M675,87.2c-3.1-7.7-7-14.3-11.7-19.4c-4.8-5.3-10.1-9.4-15.8-12.2c-5-2.5-9.7-4.2-14.3-5.2 c-4.7-1.2-8.8-1.7-12.7-1.7c-3.4,0-4.3,0-5.1,0.1c-0.9,0.1-2,0.2-5.3,0.5c-3.7,0.4-7.7,1.5-12.2,3.2c-4.4,1.6-9,3.9-13.6,6.9 c-5.3,3.5-10,8.2-14.2,14c-1.5,2.1-2.8,4.3-4,6.7c-1.8-2.8-3.8-5.3-6-7.7c-5.8-6.3-13-11-21.5-13.9c-8-2.9-17.5-4-28-3.4h-0.5 c-11.4,1-21.7,4.3-30.5,9.8h-0.1c-3.8,2.4-7.5,5.3-11.1,8.8l-0.3,0.3c-3.8,3.9-7.1,8.6-9.9,14l-0.1,0.1c-1.7-2.6-3.6-4.9-5.6-7 c-3.4-3.8-7.2-7-11.4-9.5c-3.6-2.4-7.4-4.3-11.1-5.7l-0.2-0.1c-8.5-3.1-17.5-4.6-26.9-4.3h-0.5h-0.5c-11.4,1-21.7,4.3-30.6,9.8 c-3.8,2.4-7.5,5.3-11.1,8.8l-0.3,0.3c-0.7,0.7-1.3,1.4-1.9,2.1L355,33l-56.1,3.4l2,33.8l-8.5,0.5l-1.7-27.4l-56.1,3.4l2.5,40.9 c-5-4.4-10.8-7.8-17.4-10c-8.1-2.9-17.5-4-28-3.4h-0.5c-11.4,1-21.6,4.3-30.5,9.8l-0.1,0.1c-3.8,2.4-7.5,5.3-11.1,8.8l-0.3,0.3 c-3.8,3.9-7.1,8.6-9.9,14l-0.1,0.1c-1.7-2.6-3.6-4.9-5.6-7c-3.4-3.8-7.2-7-11.4-9.5c-3.6-2.4-7.4-4.3-11.1-5.7l-0.2-0.1 c-8.5-3.1-17.5-4.6-26.8-4.3h-0.5h-0.5c-11.4,1-21.7,4.3-30.5,9.8c-3.8,2.4-7.5,5.3-11.1,8.8l-0.3,0.3c-3.8,3.9-7.1,8.6-9.8,14 l-0.1,0.2c-2.5,5.1-4.5,11.1-5.8,17.8c-1.3,6.6-1.7,14.1-1.2,22.4c0.5,8.3,1.8,15.7,3.9,22.1c2.1,6.5,4.7,12.2,7.9,17l0.2,0.4 c3.4,4.9,7.2,9,11.3,12.3l0.6,0.5c3.9,2.8,7.8,5.2,11.8,7l0.3,0.1c9.4,4.2,20,6.1,31.4,5.5h0.2c8.8-0.5,17.2-2.6,25-6.2l0.3-0.2 c3.1-1.5,6.4-3.4,9.6-5.7l0.5-0.3c3.6-2.7,7-5.9,9.9-9.6c2.5-3,4.7-6.3,6.6-10c3.1,4.6,6.5,8.6,10.1,11.8l0.6,0.5 c3.7,2.9,7.5,5.4,11.5,7.4l0.1,0.1c9,4.4,19.1,6.3,30.1,5.9h0.6l0.6-0.1c4-0.3,10.3-0.7,11.7-0.7l53.6-3.2l-0.6-10.7 c1.1,0.7,2.4,2.9,6.7,5.2c6.2,3.4,10.1,3.5,17.6,3.8h0.8l21.7-1.3l0,0l56.1-3.4l-1.1-17.5c0.7,0.6,1.4,1.3,2.2,1.9l0.6,0.5 c3.9,2.8,7.8,5.2,11.7,7l0.3,0.1c9.4,4.2,20,6,31.4,5.5h0.2c8.8-0.5,17.2-2.6,25-6.2l0.4-0.2c3.1-1.6,6.4-3.5,9.6-5.6l0.5-0.3 c3.6-2.7,7-5.9,9.9-9.6c2.5-3,4.7-6.3,6.6-10c3.1,4.6,6.5,8.6,10.1,11.8l0.6,0.5c3.7,3,7.6,5.4,11.5,7.3h0.1 c9,4.4,19.1,6.3,30.1,5.9h0.6l0.6-0.1c3.9-0.5,11.7-0.8,11.7-0.8l34.3-2.1l0,0l56.1-3.4l10-0.6l56.1-3.4l-4.1-68.6 C680.1,103.8,678.2,94.8,675,87.2z"></path> </g> </g> <g> <rect x="320.2" y="50.5" transform="matrix(0.9982 -6.024816e-02 6.024816e-02 0.9982 -6.5415 20.2485)" class="st1" width="24.6" height="136.2"></rect> <path class="st2" d="M427.6,116.8c-0.8-2.1-1.8-4.2-3-6.3c-1.1-2.1-2.5-4-4.4-5.6s-4-2.9-6.5-3.6c-2.5-0.9-5.3-1.3-8.6-1.1 c-3.2,0.2-6,0.9-8.4,2.1c-2.4,1.1-4.4,2.5-6,4.4s-2.9,3.9-3.9,6.1c-0.9,2.2-1.6,4.4-2,6.6L427.6,116.8 M453,115.2 c0.4,2,0.7,4.1,1,6.2c0.4,2.1,0.7,4.4,0.8,6.8l0.2,3.6l-70.5,4.3c0.4,2.3,0.9,4.6,1.4,7c0.5,2.3,1.3,4.5,2.4,6.7 c1.7,3.4,4.2,6.4,7.4,8.9c3.3,2.5,7.6,3.6,13.1,3.3s9.7-1.9,12.7-4.8c2.9-2.9,5-6.1,6.3-9.7l26.2-1.6c-0.8,4.8-2.1,9-3.9,12.6 c-1.7,3.6-3.6,6.8-5.9,9.5c-2.1,2.7-4.5,5-7.1,6.9c-2.6,1.8-5.1,3.3-7.6,4.5c-6,2.8-12.5,4.4-19.3,4.8c-9,0.4-17.1-1-24.3-4.2 c-3-1.4-6.1-3.3-9.2-5.5c-3-2.4-5.7-5.4-8.2-9c-2.4-3.6-4.4-8-6.1-13.2s-2.7-11.2-3.1-18.2s-0.1-13.1,0.9-18.4s2.5-9.9,4.4-13.8 c2-4,4.4-7.4,7.1-10.1c2.8-2.7,5.6-5,8.5-6.8c6.8-4.2,14.6-6.7,23.6-7.5c7.4-0.2,14.4,1,21,3.4c2.8,1,5.5,2.5,8.3,4.3 c2.9,1.7,5.6,4,8.1,6.8c2.6,2.7,4.9,6,6.9,9.9C450.2,105.5,451.8,110,453,115.2z"></path> <path class="st2" d="M513.2,94.6c-5,0.3-8.9,1.6-11.9,3.7c-2.8,2.2-5,4.9-6.4,8.1c-1.4,3.1-2.3,6.3-2.6,9.9 c-0.3,3.5-0.4,6.8-0.2,9.7c0.2,3,0.6,6.2,1.4,9.6c0.7,3.5,2,6.7,3.8,9.7c1.8,2.9,4.2,5.2,7.3,7c3.2,1.8,7.3,2.6,12.3,2.3 s8.9-1.5,11.7-3.7c3-2.2,5.2-4.8,6.6-7.9c1.6-3.2,2.5-6.5,2.8-10.1c0.3-3.5,0.4-6.8,0.2-9.7c-0.2-3.6-0.7-7.2-1.4-10.6 c-0.6-3.6-1.8-6.8-3.6-9.5c-1.7-2.9-4.1-5.1-7.3-6.6C522.6,94.9,518.4,94.3,513.2,94.6 M565.2,172.7l-24,1.4l-0.9-14.1 c0,0-0.5,4.1-3.8,7.3s-6.6,5.5-9.9,7.1c-3.8,1.7-7.8,2.8-11.9,3.3c-8.3,0.4-15.8-1.1-22.5-4.3c-2.9-1.4-5.8-3.3-8.6-5.5 c-2.7-2.4-5.2-5.4-7.6-9c-2.2-3.6-4.2-8-5.8-13.2c-1.5-5.2-2.5-11.2-2.9-18.2s-0.1-13.1,0.9-18.5c1-5.3,2.5-9.9,4.4-13.8 c2-4,4.4-7.4,7.1-10.1c2.8-2.7,5.6-5,8.5-6.8c6.8-4.2,14.6-6.7,23.6-7.5c8.5-0.5,15.7,0.3,21.8,2.5c6,2.1,11.1,5.3,15.1,9.8 c4.2,4.3,7.3,9.8,9.5,16.4c2.1,6.5,3.5,13.9,4,22.4L565.2,172.7z"></path> <path class="st1" d="M616.4,64.5c0.4,0,1.8,0,4.2-0.1c2.6,0,5.5,0.4,9,1.3c3.4,0.7,7.1,2.1,11,4s7.6,4.8,11,8.6 c3.5,3.8,6.4,8.8,8.8,14.8c2.5,5.9,4.1,13.4,4.6,22.4l3.1,50.9l-24.6,1.5l-3.1-50.9c-0.2-3-0.6-6-1.3-9s-1.9-5.8-3.5-8.3 s-3.8-4.4-6.6-5.9c-2.8-1.6-6.4-2.2-10.8-2c-4.4,0.3-7.9,1.4-10.5,3.3c-2.6,1.8-4.5,4-5.9,6.6c-1.3,2.6-2.2,5.5-2.5,8.6 s-0.4,6.2-0.3,9.1l3.1,50.9l-24.6,1.5l-3.1-50.9c-0.5-9,0-16.6,1.7-22.7c1.8-6.3,4.1-11.6,7.1-15.8c3-4.2,6.3-7.5,9.9-9.9 c3.6-2.4,7.1-4.1,10.4-5.3c3.3-1.3,6.1-2.1,8.5-2.3C614.4,64.7,615.9,64.6,616.4,64.5"></path> </g> <g> <path class="st3" d="M109,136c-0.8-2.1-1.8-4.2-3-6.3c-1.1-2.1-2.5-4-4.4-5.6s-4-2.9-6.5-3.6c-2.5-0.9-5.3-1.3-8.5-1.1 c-3.2,0.2-6,0.9-8.4,2.1c-2.4,1.1-4.4,2.5-6,4.4s-2.9,3.9-3.9,6.1c-0.9,2.2-1.6,4.4-2,6.6L109,136 M134.4,134.5 c0.4,2,0.7,4.1,1,6.2c0.4,2.1,0.7,4.4,0.8,6.8l0.2,3.6l-70.5,4.3c0.4,2.3,0.9,4.6,1.4,7c0.5,2.3,1.4,4.5,2.4,6.7 c1.7,3.4,4.2,6.4,7.4,8.9c3.3,2.5,7.6,3.6,13.1,3.3s9.7-1.9,12.6-4.8c2.9-2.9,5-6.1,6.3-9.7l26.2-1.6c-0.8,4.8-2.1,9-3.9,12.6 c-1.7,3.6-3.6,6.8-5.9,9.5c-2.1,2.7-4.5,5-7.1,6.9c-2.6,1.8-5.1,3.3-7.6,4.5c-6,2.8-12.5,4.4-19.3,4.8c-9,0.4-17.1-1-24.3-4.2 c-3.1-1.4-6.1-3.3-9.2-5.5c-3-2.4-5.7-5.4-8.2-9c-2.4-3.6-4.4-8-6-13.2c-1.7-5.2-2.7-11.2-3.1-18.2c-0.4-7-0.1-13.1,0.9-18.4 c1-5.3,2.5-9.9,4.4-13.8c2-4,4.4-7.4,7.1-10.1c2.8-2.7,5.6-5,8.5-6.8c6.8-4.2,14.6-6.7,23.6-7.5c7.4-0.2,14.4,1,21,3.4 c2.8,1,5.5,2.5,8.3,4.3c2.9,1.7,5.6,4,8.1,6.8c2.6,2.7,4.9,6,6.9,9.9C131.6,124.8,133.3,129.3,134.4,134.5z"></path> <path d="M279.5,111.5l2.7,44.9c0.5,1.6,1.3,3,2.5,4.3c1,1,2.3,1.9,4,2.8c1.8,0.8,4,1.2,6.7,1l15.3-0.9l1.5,24.4l-24.6,1.5 c-5.3-0.2-10.1-1.4-14.4-3.6c-3.6-1.8-7-4.6-10.2-8.3c-3.1-3.9-4.8-9.3-5.2-16.3l-6-99.7l24.6-1.5l1.7,27.4l23.2-1.4l1.4,24 L279.5,111.5"></path> <path d="M243.5,141.2c-0.5-8.5-1.8-15.9-4-22.4c-2.2-6.6-5.3-12.1-9.5-16.4c-4.1-4.5-9.1-7.7-15.1-9.8c-6.1-2.2-13.3-3-21.8-2.5 c-9,0.8-16.8,3.3-23.6,7.5c-2.8,1.8-5.7,4.1-8.5,6.8c-2.7,2.7-5,6.1-7.1,10.1c-1.9,3.9-3.4,8.5-4.4,13.8c-1,5.3-1.3,11.5-0.9,18.5 c0.4,7,1.4,13.1,2.9,18.2c1.7,5.2,3.6,9.5,5.8,13.2c2.4,3.6,4.9,6.6,7.6,9c2.8,2.3,5.7,4.1,8.6,5.5c6.7,3.2,14.2,4.7,22.5,4.3 c4.2-0.5,8.1-1.6,11.9-3.3c3.3-1.5,6.6-3.9,9.9-7.1c3.3-3.2,3.8-7.3,3.8-7.3l0.9,14.1l24-1.4L243.5,141.2z M204,144.8l13.8,11.4 l-13.2,10.9l-8.6-15.9l-7.5,16.9l-14.2-9.3l12.4-13l-17.9-1.5l4.4-16.4l16.6,7.8l-4.4-17.9l16.9-1l-2,18.3l15-9.7l6.3,15.8 L204,144.8z"></path> </g> </svg> 