<?xml version="1.0" encoding="UTF-8"?> <svg xmlns="http://www.w3.org/2000/svg" xmlns:xlink="http://www.w3.org/1999/xlink" version="1.1" id="logo-blue" x="0px" y="0px" viewBox="0 0 171.7 106.4" style="enable-background:new 0 0 171.7 106.4;" xml:space="preserve"> <style type="text/css"> .st0{fill:#FDC200;} .st1{fill:#FFFFFF;} </style> <path id="Path_1" class="st0" d="M38.6,55.9c-0.8,0-1.4-0.6-1.5-1.4l-0.4-5.3c0-0.5-0.3-0.9-0.7-1.1l-4.6-2.7 c-0.7-0.4-0.9-1.3-0.5-2c0.2-0.3,0.4-0.5,0.7-0.6l5-2c0.4-0.2,0.7-0.6,0.9-1l1.2-5.2c0.2-0.6,0.7-1.1,1.4-1.1c0.4,0,0.8,0.2,1.1,0.5 l3.4,4.1c0.3,0.3,0.7,0.5,1.1,0.5h0.1l5.3-0.5h0.1c0.8,0,1.4,0.6,1.4,1.4c0,0.3-0.1,0.5-0.2,0.8l-2.8,4.5c-0.3,0.4-0.3,0.9-0.1,1.3 l2.1,4.9c0.3,0.7,0,1.6-0.7,1.9C50.7,53,50.5,53,50.3,53h-0.4l-5.2-1.3h-0.3c-0.4,0-0.7,0.1-1,0.4l-4,3.5 C39.3,55.8,38.9,55.9,38.6,55.9"></path> <path id="Path_2" class="st0" d="M85.9,18.7c-2.5,0-4.8-1.3-6.2-3.3c-5.3-7.2,0.4-14,3.2-15.4h0.5c0.6,0,1.1,0.5,1.1,1.2 c0,0,0,0,0,0c-0.1,1.9-0.8,5.4,1.8,7.5c1.3,1.1,2.9,1.6,4.5,1.6c1.2,0,2.3-0.3,3.4-0.7c0.1-0.1,0.2-0.1,0.4-0.1 c0.7,0.1,1.2,0.7,1.1,1.4c0,0,0,0,0,0C94.5,15.4,90.5,18.5,85.9,18.7"></path> <path id="Path_3" class="st0" d="M124.4,39.5c-0.2,0-0.3-0.1-0.5-0.2l-2.4-1.8c-0.1-0.1-0.3-0.2-0.5-0.2h-0.3l-2.8,0.9h-0.3 c-0.5,0-0.8-0.4-0.8-0.8c0-0.1,0-0.2,0-0.3l1-2.8c0.1-0.2,0-0.5-0.1-0.7l-1.8-2.4c-0.3-0.4-0.2-0.9,0.2-1.2c0.1-0.1,0.3-0.2,0.5-0.1 l0,0l3,0.1l0,0c0.3,0,0.5-0.1,0.7-0.3l1.7-2.4c0.2-0.2,0.4-0.3,0.7-0.3l0,0c0.4,0,0.7,0.2,0.8,0.6l0.9,2.9c0.1,0.3,0.3,0.5,0.5,0.5 l2.9,0.9c0.4,0.1,0.6,0.6,0.5,1c-0.1,0.2-0.2,0.3-0.3,0.4l-2.5,1.7c-0.2,0.2-0.3,0.4-0.3,0.7v3C125.2,39.1,124.9,39.5,124.4,39.5 C124.4,39.5,124.4,39.5,124.4,39.5"></path> <g id="Group_1"> <path id="Path_4" class="st1" d="M80.1,30c-1.3,0-3.2,1.4-3.2,4.4c0,1.8,1.1,2.6,2.1,2.6c2.7,0,3.3-3.1,3.3-4.3 C82.3,31,81.5,30,80.1,30 M77.9,42.8c-3.9,0-8-2.3-8-7.5C69.9,29.9,73.4,24,81,24c5,0,7.9,2.6,7.9,7.2 C88.9,38.1,84.4,42.8,77.9,42.8"></path> <path id="Path_5" class="st1" d="M92.1,42.9c-1.4,0-2.2-1.1-2.2-2.9c0.1-0.9,0.2-1.9,0.4-2.8c0.2-1.2,0.4-2.5,0.5-3.6 c0.1-1.8,0-3.7-0.1-5.5c0-0.4-0.1-0.8-0.1-1.1c0-0.7,0.2-1.3,0.6-1.8c0.4-0.4,0.9-0.6,1.5-0.6c1,0,1.9,0.5,2.5,1.3 c0.3,0.3,0.4,0.5,0.6,0.5c0.5-0.1,1.1-0.3,1.5-0.6c1.5-0.8,3.1-1.3,4.8-1.4h0.1c1.8,0,3.8,0.8,3.8,3.1c0.2,1.9-1.2,3.6-3.2,3.8 c0,0,0,0,0,0c-0.6,0.1-1.1,0.1-1.5,0.2c-1.2-0.1-2.3,0.3-3.2,1c-1.3,1.2-1.6,3.1-1.8,4.8c-0.1,0.7-0.2,1.3-0.3,1.9 C95.4,40.8,94.6,42.9,92.1,42.9"></path> <path id="Path_6" class="st1" d="M63.2,45.5c-2.6,0-5.1-3.4-6.4-8.6h-0.9c-2.3,0-3.7-1.2-3.7-3.3c0-1.7,1.8-2,3.6-2.3h0.1 c-0.1-1-0.1-2-0.1-2.9C55.8,17,65,16.6,66,16.6c4.1,0,6.3,1.3,6.3,3.7c0.1,1.8-1.3,3.3-3.1,3.4c-0.1,0-0.3,0-0.4,0 c-0.5,0-0.9-0.1-1.3-0.3c-0.5-0.2-1-0.3-1.5-0.3c-2.3,0-3.4,1.5-3.4,4.7v1.5c0.7-0.3,1.3-0.5,1.7-0.7c0.7-0.3,1.4-0.7,2-1.1 c0.5-0.4,1.2-0.7,1.9-0.7c1,0,1.6,0.6,1.6,1.8c0,3.4-3.8,5.5-6.3,6.5c0.4,1.2,1,2.3,1.8,3.3c1,1.1,1.5,2.5,1.5,3.9 C66.9,44.1,65.2,45.5,63.2,45.5"></path> <path id="Path_7" class="st1" d="M151.2,73.4c-3.8,0-6.7,5-6.7,11.6c0,2.3,0.8,4.8,2.7,4.8c5,0,6.7-9.7,6.7-13.1 C153.9,75.2,153.4,73.4,151.2,73.4 M158.3,106.4c-3.4,0-5.8-1.6-7.6-4.8c-0.8-1.5-1.1-1.9-1.5-1.9c-0.6,0-1.1,0.2-1.6,0.4 c-0.3,0.1-0.7,0.2-1,0.3c-1.4,0.4-2.9,0.6-4.4,0.5c-6.7,0-11.2-5.3-11.2-13.3c0-18.6,11.7-27.1,22.6-27.1c8.4,0,13.9,4.6,13.9,11.8 c0,4.4-1.4,8.8-2.7,13.1c-1.3,4.1-2.5,8.1-2.5,11.9c-0.1,1.1,0.2,2.1,0.6,3.1c0.3,0.7,0.5,1.4,0.5,2.1 C163.3,105.1,161.7,106.4,158.3,106.4 M122.2,97.5c-4.5,0-7.2-3-7.5-8.2c0-4.2,0.5-8.3,1.5-12.4c0.5-2,0.8-4,0.9-6 c-0.1-2-0.8-2.8-2.4-2.7c-2.3,0.1-3.9,1.8-5.5,5.9c-1.4,4.2-2.6,8.5-3.5,12.9c-0.2,0.9-0.4,1.8-0.6,2.5c-0.7,3-2.3,4.5-4.9,4.7 c-4.1,0.2-6-2.4-6.4-8.7c-0.4-8.6,2.4-34.8,3.5-39.5c1.2-4.7,4-7,8.7-7.3h0.5c3.1,0,4.7,1.7,4.9,5.2c0,1.9-0.3,3.8-0.8,5.7 c-0.4,1.7-0.9,3.8-1.4,6.7c-0.1,0.3-0.1,0.7,0,1c0.1-0.1,0.2-0.1,0.3-0.2c2.7-2.6,6.3-4.1,10.1-4.2c7.4-0.4,12.1,3.9,12.5,11.3 c0.3,5.5-1,9.9-2.3,14.2c-0.6,2-1.1,3.8-1.5,5.8c-0.6,3.2-0.3,4.1,0,5.1c0.3,0.9,0.5,1.8,0.5,2.7c0.1,1.6-0.6,3.1-1.8,4.1 c-1.2,0.9-2.7,1.4-4.2,1.5C122.6,97.5,122.4,97.5,122.2,97.5 M70.9,95.4C63.7,95.4,56,91.8,56,84c0-3.5,2.3-7,6.8-7 c2.5,0.1,4.8,1.4,6.1,3.5c1.4,2.1,2.5,2.7,4.4,2.6c2.1-0.1,3.3-1.2,3.3-3.1c0-2.5-3.3-3.6-7-4.9c-5.5-1.9-12.4-4.3-12.4-12.3 c0-9.4,10.6-14.5,20.6-14.5c9.3,0,13.5,4.1,13.5,8.2c0,4-2.7,6.6-7,6.6c-1.4-0.1-2.7-0.6-3.9-1.3c-1.3-0.8-2.7-1.3-4.2-1.4 c-2.6,0-3.6,0.8-3.6,2.8c0,1.6,2.5,2.3,5.7,3.2c5.5,1.5,13.1,3.6,13.1,12.7C91.4,89,83.6,95.4,70.9,95.4 M48.3,94.4 c-7.1,0-11.1-14.3-11.1-24.1c0-12,6.9-13.2,9.9-13.2c4.1,0,5.9,2,5.9,6.6c0,1.9-0.1,3.7-0.3,5.6c-0.1,1.6-0.2,3.1-0.2,4.2 c0,3.3,0.4,6.5,1.3,9.7c0.6,2,0.9,4,0.9,6.1C54.7,92.4,52.3,94.4,48.3,94.4 M18.8,73.2c-2.9,0-4.6,3.3-4.6,8.8 c0,6.8,1.7,10.2,5,10.2c2.6,0,4.1-2.4,4.1-6.4C23.3,77.5,21.8,73.2,18.8,73.2 M17.2,106.3C8.6,106.3,0,99.6,0,84.5 c0-15.9,7.9-25.8,20.7-25.8c7.4,0,11.6,3.9,12.8,11.8c0.9,5.8,2.2,14.4,3.8,17.7c0.5,1,1.3,2,2.1,2.8c1.5,1.2,2.4,3.1,2.3,5 c0,3.6-3.5,5.8-6.7,5.8c-1.7,0-3.3-0.5-4.6-1.5c-0.4-0.3-0.8-0.6-1.3-0.6c-0.7,0-1.7,0.9-2.8,2C24.3,103.6,21.4,106.3,17.2,106.3"></path> <path id="Path_8" class="st1" d="M169.1,96.4c0.3,0,0.4-0.1,0.4-0.4s-0.3-0.3-0.6-0.3h-0.4v0.7C168.5,96.4,169.1,96.4,169.1,96.4z M168.5,98.1h-0.6v-2.9h1.1c0.8,0,1.2,0.2,1.2,0.9c0,0.4-0.3,0.8-0.7,0.8l0.7,1.3h-0.7l-0.7-1.2h-0.3V98.1z M169,94.6 c-1,0-1.9,0.8-1.9,1.9c0,0.1,0,0.1,0,0.2c-0.1,1.1,0.7,2,1.8,2.1c0,0,0.1,0,0.1,0l0,0c1.2-0.1,2-1.2,1.9-2.3 C170.8,95.5,170,94.7,169,94.6 M169,99.4c-1.5,0-2.7-1.2-2.7-2.7c0-1.5,1.2-2.7,2.7-2.7c1.5,0,2.7,1.2,2.7,2.7v0 c0,1.4-1.1,2.7-2.5,2.7C169.1,99.4,169.1,99.4,169,99.4"></path> </g> </svg> 