<?xml version="1.0" encoding="UTF-8"?> <svg xmlns="http://www.w3.org/2000/svg" id="Group_3" data-name="Group 3" viewBox="0 0 1260.41 382.91"><defs><style>.cls-1{fill:#fff;}.cls-2{fill:#f4541c;}</style></defs><g id="Vertical"><path class="cls-1" d="M548.35,364.32,463,589.91H417L328.76,364.32h53.88l57,159.48,55.37-159.48Z" transform="translate(-328.76 -348.93)"></path><path class="cls-1" d="M699.53,502.28a110.27,110.27,0,0,1-.91,13.8H566.9c4.09,23.75,19.71,36.83,42.53,36.83,16.35,0,29.77-7.74,36.92-20.19H695.8c-12.65,37.94-46,62.11-86.36,62.11-51.39,0-90.27-39.78-90.27-91.93,0-52.42,38.61-91.94,90.27-91.94,53.44,0,90.09,41.19,90.09,91.32ZM568.15,483.94h84.33c-6.65-21.28-21.93-32.81-43.05-32.81C588.48,451.13,573.61,463.34,568.15,483.94Z" transform="translate(-328.76 -348.93)"></path><path class="cls-1" d="M797.43,415.09h11.49v43.48H792.48c-26.51,0-37,11.75-37,40.2v91.14H708.43v-174H738.6L747,437.32C759.39,422,775.11,415.09,797.43,415.09ZM954.5,546.43V590H928.42c-42.71,0-70-27.27-70-70.05V455.7H821V416h37.47V367.25h47.05V416h48.58v39.7H905.48v61.55c0,18.93,10.26,29.18,29.13,29.18Z" transform="translate(-328.76 -348.93)"></path><path class="cls-1" d="M963.25,415.88h47.06v174H963.25Zm.09-66.95h46.88v43.75H963.34Z" transform="translate(-328.76 -348.93)"></path><path class="cls-1" d="M1112.06,594.83c-52.36,0-92.41-40.31-92.41-92.46S1059.44,411,1112.33,411c45.06,0,80,28.57,88.5,71.4H1154.1c-7.61-17.1-23.29-27.15-42-27.15-25.52,0-44.71,20.48-44.71,47.43s19.51,48,44.71,48c19,0,34-10.57,42-29.18h47.37c-8.2,43.75-43.83,73.42-89.36,73.42Z" transform="translate(-328.76 -348.93)"></path><path class="cls-1" d="M1385.1,415.62v174h-36.88l-4-15.57c-14.94,13.09-34.44,20.76-56.39,20.76-52.36,0-91.3-39.53-91.3-92.2,0-52.48,38.94-91.68,91.3-91.68,22.33,0,42.13,7.87,57.17,21.29l5-16.63Zm-46.11,87c0-27.34-20-47.7-47.38-47.7s-47.43,20.42-47.43,47.7,20.1,47.69,47.43,47.69S1339,530,1339,502.64Z" transform="translate(-328.76 -348.93)"></path><path class="cls-1" d="M1405.74,353.16h47V589.91h-47Z" transform="translate(-328.76 -348.93)"></path></g><g id="Recruitment"><path class="cls-2" d="M810.42,690.64h-20.1v39.21H772.94v-106h41.24c20.41,0,35.6,14,35.6,33.52,0,14.45-8.59,26-21.55,30.78l24.47,41.65H833.19Zm-20.1-16.28h22.84c11.52,0,18.93-7.13,18.93-17.09s-7.41-17.09-18.93-17.09H790.32Z" transform="translate(-328.76 -348.93)"></path><path class="cls-2" d="M934.73,689.18a53.62,53.62,0,0,1-.35,5.51H868c2.1,13.25,11.63,21.39,25,21.39,9.77,0,17.68-4.51,22-12h17.69c-6.51,17.25-21.43,27.72-39.68,27.72-23.9,0-42-18.44-42-42.86s18.06-42.86,42-42.86c25,0,41.67,19.27,41.67,43.06ZM893.05,661.3c-12.64,0-21.84,7.62-24.59,19.74h49.42c-3-12.41-12.37-19.74-24.83-19.74Z" transform="translate(-328.76 -348.93)"></path><path class="cls-2" d="M978.55,731.85c-24.35,0-42.84-18.54-42.84-43s18.44-42.78,42.88-42.78c20.2,0,36,12.38,40.53,31.13h-16.65c-4.3-9.4-13.27-15.08-23.92-15.08-14.72,0-25.74,11.62-25.74,26.77S964,715.8,978.55,715.8c10.69,0,19.36-5.77,23.81-15.71h16.95c-4.49,19.1-20.58,31.75-40.76,31.75Z" transform="translate(-328.76 -348.93)"></path><path class="cls-2" d="M1070.87,647.66v15.87H1062c-13.9,0-20.83,7.93-20.83,22.73v43.59h-16.81V648.12h11.37l2.84,11.15c5.85-7.75,13.87-11.61,25-11.61Z" transform="translate(-328.76 -348.93)"></path><path class="cls-2" d="M1108.91,731.84c-22.45,0-37.17-14.51-37.17-36.5V648.12h16.8V693c0,14.19,7.75,22.81,20.37,22.81s20.33-8.77,20.33-22.81V648.12H1146v47.22c0,22-14.57,36.5-37.13,36.5Z" transform="translate(-328.76 -348.93)"></path><path class="cls-2" d="M1157.38,618.12h17.36v17.33h-17.36Zm.28,30h16.8v81.73h-16.8Z" transform="translate(-328.76 -348.93)"></path><path class="cls-2" d="M1233.06,714.59v15.26h-12.49c-17.91,0-29-11.05-29-29.1V662.51H1177v-3.25L1205.42,629h2.86v19.09h24.32v14.39h-24.18v36.91c0,9.75,5.42,15.17,15.32,15.17Z" transform="translate(-328.76 -348.93)"></path><path class="cls-2" d="M1329.34,646.25c17.24,0,28.87,13.11,28.87,31.62v52h-16.8V682c0-13.16-5.72-20.68-15.9-20.68-10.83,0-19.17,9.92-19.17,23.84v44.69h-16.41V682c0-13.16-5.68-20.68-15.92-20.68-10.87,0-19.25,9.92-19.25,23.84v44.69H1238V648.12h11.9l2.89,10.55a32.77,32.77,0,0,1,25.4-12.42c11.08,0,19.86,5.45,24.52,14.32a32.32,32.32,0,0,1,26.67-14.32Z" transform="translate(-328.76 -348.93)"></path><path class="cls-2" d="M1447.26,689.18a50.94,50.94,0,0,1-.35,5.51h-66.34c2.1,13.25,11.63,21.39,25,21.39,9.76,0,17.67-4.51,22-12h17.69c-6.51,17.25-21.43,27.72-39.68,27.72-23.9,0-42-18.44-42-42.86s18.06-42.86,42-42.86c25,0,41.67,19.27,41.67,43.06Zm-41.67-27.88c-12.64,0-21.85,7.62-24.6,19.74h49.42c-3-12.41-12.37-19.74-24.82-19.74Z" transform="translate(-328.76 -348.93)"></path><path class="cls-2" d="M1497.51,646.26c19.11,0,31,14.24,31,34.38v49.21h-16.8v-45.8c0-14.84-6.46-22.73-18.75-22.73-12.84,0-22,10.33-22,24.77v43.76h-16.8V648.12H1466l3.26,11.4c6.19-8.24,16.28-13.27,28.29-13.27Z" transform="translate(-328.76 -348.93)"></path><path class="cls-2" d="M1584.65,714.59v15.26h-12.49c-17.91,0-29-11.05-29-29.1V662.51h-14.62v-3.25L1557,629h2.86v19.09h24.32v14.39H1560v36.91c0,9.75,5.42,15.17,15.32,15.17Z" transform="translate(-328.76 -348.93)"></path></g><g id="Triangle_1_copy" data-name="Triangle 1 copy"><polygon class="cls-2" points="1211.22 156.63 1162.03 241.98 1260.41 241.98 1211.22 156.63"></polygon></g></svg> 