<?xml version="1.0" encoding="UTF-8"?> <!-- Generator: Adobe Illustrator 21.0.0, SVG Export Plug-In . SVG Version: 6.00 Build 0) --> <svg xmlns="http://www.w3.org/2000/svg" xmlns:xlink="http://www.w3.org/1999/xlink" id="Layer_1" x="0px" y="0px" viewBox="0 0 417 112" xml:space="preserve"> <g> <g> <g> <g> <rect x="37.6" y="23.1" fill="#FFFFFF" width="14" height="14"></rect> </g> <path fill="#FFFFFF" d="M120.7,49.3c-4.6-1.1-5.7-1.1-9.1-1.4c-6.5-0.5-13.5,3.8-18.5,7.4c-5.7,4.1-10.6,9.2-15.1,14.5 c-3.7,4.3-7.3,8.7-11.5,12.6c-5.7,5.4-9.2,5.9-11.4,6.4c-2.6,0.6-6.6,1.4-9.5,0.5c-1.8-0.6-3.9-1.5-5.9-2.9 c-6-3.9-16.4-13.7-16.5-13.8l-0.4,0.4c0.1,0.1,10.6,10,16.6,13.9c3.2,2.1,8.1,3.8,11.7,4.8c2.3,0.7,5.9,1.4,6.8,1.5 c12,2.3,22.5-0.4,31.3-4.6c5.8-2.8,10.1-7.3,14.5-11.9c4.6-4.8,9.2-9.6,13.8-14.3c1.8-1.9,3.6-3.7,5.5-5.6 c2.9-2.9,5.6-5.4,5.6-5.4C126.1,51,123.9,50,120.7,49.3z"></path> <path fill="#FFFFFF" d="M98.8,24.5c-4.6-1.1-5.7-1.1-9.1-1.4c-6.5-0.5-13.5,3.8-18.5,7.4c-5.7,4.1-10.6,9.2-15.1,14.5 c-3.7,4.3-7.3,8.7-11.5,12.6c-5.7,5.4-9.2,5.9-11.4,6.4c-2.6,0.6-6.6,1.4-9.5,0.5c-1.8-0.6-3.9-1.5-5.9-2.9 c-6-3.9-16.4-13.7-16.5-13.8L1,48.2c0.1,0.1,10.6,10,16.6,13.9c3.2,2.1,8.1,3.8,11.7,4.8c2.3,0.7,5.9,1.4,6.8,1.5 c12,2.3,22.5-0.4,31.3-4.6c5.8-2.8,10.1-7.3,14.5-11.9c4.6-4.8,9.2-9.6,13.8-14.3c1.8-1.9,3.6-3.7,5.5-5.6 c2.9-2.9,5.6-5.4,5.6-5.4C104.2,26.2,102,25.3,98.8,24.5z"></path> </g> <g> <path fill="#FFFFFF" d="M157.2,52.1h-1.9V33.6h5.7c1.9,0,3.4,0.4,4.5,1.2c1.1,0.8,1.6,2.1,1.6,3.7c0,1.3-0.4,2.4-1.2,3.3 c-0.8,0.9-2,1.4-3.5,1.5l5.3,8.8h-2.3l-5.1-8.6h-3.1V52.1z M157.2,41.8h3.4c0.8,0,1.6-0.1,2.1-0.3c0.6-0.2,1.1-0.4,1.4-0.7 c0.3-0.3,0.6-0.6,0.8-1c0.2-0.4,0.2-0.8,0.2-1.3c0-0.4-0.1-0.9-0.2-1.2c-0.2-0.4-0.4-0.7-0.8-1c-0.3-0.3-0.8-0.5-1.4-0.7 c-0.6-0.2-1.3-0.2-2.1-0.2h-3.4V41.8z"></path> <path fill="#FFFFFF" d="M194.2,42.8c0,1.4-0.2,2.7-0.7,3.9c-0.5,1.2-1.2,2.2-2,3.1c-0.9,0.9-1.9,1.5-3.1,2 c-1.2,0.5-2.5,0.7-3.8,0.7c-1.4,0-2.7-0.2-3.8-0.7c-1.2-0.5-2.2-1.2-3.1-2c-0.9-0.9-1.5-1.9-2-3.1c-0.5-1.2-0.7-2.5-0.7-3.9 s0.2-2.7,0.7-3.9c0.5-1.2,1.2-2.2,2-3.1c0.9-0.9,1.9-1.5,3.1-2c1.2-0.5,2.5-0.7,3.8-0.7c1.4,0,2.7,0.2,3.8,0.7 c1.2,0.5,2.2,1.2,3.1,2c0.9,0.9,1.5,1.9,2,3.1C193.9,40.1,194.2,41.4,194.2,42.8z M192.1,42.8c0-1.1-0.2-2.1-0.5-3.1 c-0.3-1-0.9-1.8-1.5-2.6c-0.7-0.7-1.5-1.3-2.4-1.8c-0.9-0.4-2-0.7-3.2-0.7c-1.2,0-2.3,0.2-3.2,0.7c-0.9,0.4-1.7,1-2.4,1.8 c-0.7,0.7-1.2,1.6-1.5,2.6c-0.4,1-0.5,2-0.5,3.1c0,1.1,0.2,2.1,0.5,3.1c0.3,1,0.8,1.8,1.5,2.6c0.7,0.7,1.5,1.3,2.4,1.8 c0.9,0.4,2,0.7,3.2,0.7c1.2,0,2.3-0.2,3.2-0.7c0.9-0.4,1.7-1,2.4-1.8c0.7-0.7,1.2-1.6,1.5-2.6C191.9,44.9,192.1,43.9,192.1,42.8z "></path> <path fill="#FFFFFF" d="M209.1,52.1h-1.9v-8l-6.9-10.6h2.4l5.5,8.8l5.5-8.8h2.4l-6.9,10.6V52.1z"></path> <path fill="#FFFFFF" d="M221.2,52.1H219l8.1-18.6h1.8l8.1,18.6h-2.2l-2-4.9h-9.5L221.2,52.1z M224,45.5h8l-4-9.8L224,45.5z"></path> <path fill="#FFFFFF" d="M246.7,50.4h8.7v1.7h-10.5V33.6h1.9V50.4z"></path> <path fill="#FFFFFF" d="M289.1,49.3L289.1,49.3l0.1-15.7h1.9v18.6h-2.4l-11.1-15.9h-0.1v15.9h-1.9V33.6h2.4L289.1,49.3z"></path> <path fill="#FFFFFF" d="M301,52.1h-2.2l8.1-18.6h1.8l8.1,18.6h-2.2l-2-4.9H303L301,52.1z M303.7,45.5h8l-4-9.8L303.7,45.5z"></path> <path fill="#FFFFFF" d="M328.4,49.4L328.4,49.4l4.7-15.9h2.3l4.7,15.9h0.1l4.4-15.9h2.1l-5.5,18.6H339l-4.7-15.9h-0.1l-4.7,15.9 h-2.2l-5.5-18.6h2.1L328.4,49.4z"></path> <path fill="#FFFFFF" d="M353.6,52.1h-2.2l8.1-18.6h1.8l8.1,18.6h-2.2l-2-4.9h-9.5L353.6,52.1z M356.4,45.5h8l-4-9.8L356.4,45.5z"></path> <path fill="#FFFFFF" d="M376.8,52.1h-2.2l8.1-18.6h1.8l8.1,18.6h-2.2l-2-4.9h-9.5L376.8,52.1z M379.6,45.5h8l-4-9.8L379.6,45.5z"></path> <path fill="#FFFFFF" d="M400.4,33.6h5.5c0.8,0,1.5,0.1,2.2,0.2c0.7,0.2,1.4,0.4,1.9,0.8c0.6,0.4,1,0.8,1.3,1.4 c0.3,0.6,0.5,1.3,0.5,2.2c0,1-0.3,1.9-0.9,2.6c-0.6,0.7-1.4,1.2-2.4,1.5v0.1c1.3,0.1,2.3,0.6,3.1,1.4c0.7,0.8,1.1,1.9,1.1,3.3 c0,0.3-0.1,0.7-0.2,1.3c-0.2,0.6-0.5,1.1-0.9,1.7c-0.5,0.6-1.2,1.1-2,1.5c-0.9,0.4-2.1,0.6-3.6,0.6h-5.7V33.6z M402.3,41.7h3.8 c0.5,0,0.9-0.1,1.3-0.2c0.4-0.1,0.8-0.3,1.2-0.6c0.4-0.3,0.7-0.6,0.9-1c0.2-0.4,0.3-0.9,0.3-1.5c0-0.2,0-0.5-0.1-0.8 c-0.1-0.3-0.3-0.7-0.5-1c-0.3-0.3-0.7-0.7-1.2-0.9c-0.5-0.3-1.2-0.4-2.1-0.4h-3.6V41.7z M402.3,50.4h3.6c0.7,0,1.3-0.1,1.9-0.2 s1.1-0.4,1.5-0.6c0.4-0.3,0.8-0.7,1-1.1c0.3-0.4,0.4-1,0.4-1.6c0-1.2-0.4-2.1-1.2-2.7c-0.8-0.6-1.9-0.9-3.5-0.9h-3.9V50.4z"></path> </g> <g> <g> <path fill="#FFFFFF" d="M178.1,68.3h1.6l3.7,8.7l3.7-8.7h1.6v10.3h-1v-9.1h0l-3.8,9.1H183l-3.8-9.1h0v9.1h-1V68.3z"></path> <path fill="#FFFFFF" d="M197.1,68.3h1.2l4.4,10.3h-1.1l-1.5-3.5h-4.8l-1.5,3.5h-1.1L197.1,68.3z M195.7,74.2h4l-2-4.7 L195.7,74.2z"></path> <path fill="#FFFFFF" d="M206.6,68.3h1.4l5.7,8.5h0v-8.5h1v10.3h-1l-6.1-9h0v9h-1V68.3z"></path> <path fill="#FFFFFF" d="M229.4,75.9c-1.1,2-3.1,2.9-4.7,2.9c-2.9,0-5.4-2.3-5.4-5.3c0-3,2.4-5.3,5.4-5.3c2.6,0,4.3,1.8,4.7,2.8 h-1.2c-1.1-1.7-2.9-1.9-3.6-1.9c-2.4,0-4.3,2.1-4.3,4.4c0,2.4,2.1,4.4,4.3,4.4c0.5,0,2.2-0.1,3.6-1.9H229.4z"></path> <path fill="#FFFFFF" d="M233.8,68.3h1v4.5h5.3v-4.5h1v10.3h-1v-4.8h-5.3v4.8h-1V68.3z"></path> <path fill="#FFFFFF" d="M245.9,68.3h5.6v0.9H247v3.7h4.4v0.9H247v3.8h4.6v0.9h-5.6V68.3z"></path> <path fill="#FFFFFF" d="M256.5,75.7c0.1,1.3,0.9,2.1,2.1,2.1c1.1,0,2.1-0.8,2.1-2c0-1.6-1.6-2-2.3-2.2c-0.9-0.3-2.7-0.7-2.7-2.7 c0-1.6,1.3-2.8,2.9-2.8c1.7,0,2.8,1.3,2.8,2.8h-1c0-1-0.8-1.9-1.8-1.9c-1.2,0-1.9,0.9-1.9,1.8c0,1.3,1.1,1.5,2.4,1.9 c2.5,0.7,2.5,2.7,2.5,3c0,1.6-1.3,3-3.1,3c-1.3,0-3.1-0.8-3.2-3.1H256.5z"></path> <path fill="#FFFFFF" d="M267.3,69.3H265v-0.9h5.7v0.9h-2.3v9.3h-1V69.3z"></path> <path fill="#FFFFFF" d="M274.5,68.3h5.6v0.9h-4.6v3.7h4.4v0.9h-4.4v3.8h4.6v0.9h-5.6V68.3z"></path> <path fill="#FFFFFF" d="M284.7,68.3h2.6c1.4,0,2.1,0.2,2.5,0.4c1.2,0.5,1.8,1.7,1.8,2.9c0,1.5-1.1,3-3.1,3.1l2.9,3.8h-1.3 l-3.5-4.7c1.3,0,1.8,0,2.2-0.2c1.1-0.3,1.7-1.3,1.7-2.2c0-0.8-0.5-1.6-1.1-2c-0.6-0.3-1.1-0.4-2-0.4h-1.8v9.3h-1V68.3z"></path> <path fill="#FFFFFF" d="M316,68.3h1v9.3h4.2v0.9H316V68.3z"></path> <path fill="#FFFFFF" d="M330.1,68.1c2.9,0,5.4,2.3,5.4,5.3c0,3-2.6,5.3-5.4,5.3c-2.9,0-5.4-2.4-5.4-5.3 C324.6,70.3,327.3,68.1,330.1,68.1z M330.1,77.8c2.4,0,4.4-1.9,4.4-4.4c0-2.4-2-4.4-4.4-4.4c-2.3,0-4.4,1.9-4.4,4.4 C325.7,75.9,327.7,77.8,330.1,77.8z"></path> <path fill="#FFFFFF" d="M339.9,68.3h1.4l5.7,8.5h0v-8.5h1v10.3h-1l-6.1-9h0v9h-1V68.3z"></path> <path fill="#FFFFFF" d="M352.9,68.3h3c1.3,0,2.5,0.3,3.3,0.8c1.8,1.1,2.3,3.1,2.3,4.3c0,1-0.4,3-2.3,4.3 c-0.8,0.5-2.1,0.8-3.3,0.8h-3V68.3z M354,77.7h1.5c0.9,0,2.3,0,3.5-0.8c0.6-0.5,1.6-1.6,1.6-3.4c0-1.4-0.7-2.6-1.8-3.4 c-0.9-0.6-1.9-0.8-3.4-0.8H354V77.7z"></path> <path fill="#FFFFFF" d="M371,68.1c2.9,0,5.4,2.3,5.4,5.3c0,3-2.6,5.3-5.4,5.3c-2.9,0-5.4-2.4-5.4-5.3 C365.6,70.3,368.3,68.1,371,68.1z M371,77.8c2.4,0,4.4-1.9,4.4-4.4c0-2.4-2-4.4-4.4-4.4c-2.3,0-4.4,1.9-4.4,4.4 C366.6,75.9,368.7,77.8,371,77.8z"></path> <path fill="#FFFFFF" d="M380.9,68.3h1.4l5.7,8.5h0v-8.5h1v10.3h-1l-6.1-9h0v9h-1V68.3z"></path> </g> <rect x="301.4" y="71.4" transform="matrix(-1.836970e-16 1 -1 -1.836970e-16 376.9233 -230.0003)" fill="#FFFFFF" width="4.2" height="4.2"></rect> </g> </g> </g> </svg> 