<?xml version="1.0" encoding="UTF-8"?> <svg xmlns="http://www.w3.org/2000/svg" xmlns:xlink="http://www.w3.org/1999/xlink" version="1.1" id="Layer_1" x="0px" y="0px" viewBox="0 0 238 176" style="enable-background:new 0 0 238 176;" xml:space="preserve"> <style type="text/css"> .st0{fill:#FFFFFF;} .st1{fill:none;stroke:#FFFFFF;stroke-miterlimit:10;} .st2{fill-rule:evenodd;clip-rule:evenodd;fill:#005EB8;} .st3{fill:#005EB8;} </style> <g id="shadow"> </g> <g id="paper"> <path id="Path_1" class="st0" d="M91.2,121.7c0,4.7-1.5,8.4-4.2,11c-2.8,2.6-6.8,3.9-11.9,3.9h-3.2v14.1H60.3v-42.4H75 c5.4,0,9.4,1.2,12.1,3.5C89.8,114,91.2,117.4,91.2,121.7z M71.7,127.2h2.2c1.5,0.1,3-0.5,4.1-1.5c1.1-1.1,1.6-2.5,1.5-4 c0-2.8-1.6-4.4-4.7-4.4h-3L71.7,127.2z"></path> <path id="Path_2" class="st0" d="M116.8,117c-2.6-0.1-5,1.2-6.4,3.4c-1.5,2.2-2.3,5.3-2.3,9.3c0,8.2,3.1,12.3,9.3,12.3 c1.8,0,3.7-0.3,5.4-0.8c1.7-0.5,3.5-1.2,5.3-1.9v9.7c-3.8,1.6-7.9,2.4-12,2.4c-6.4,0-11.3-1.8-14.7-5.5c-3.4-3.7-5.1-9.1-5.1-16.1 c-0.1-4,0.7-8,2.5-11.6c1.5-3.2,4.1-5.9,7.2-7.7c3.4-1.8,7.2-2.8,11-2.7c4.5,0,9.1,1,13.2,3l-3.5,9.1c-1.5-0.7-3.1-1.4-4.7-1.8 C120.1,117.3,118.5,117,116.8,117L116.8,117z"></path> <path id="Path_3" class="st0" d="M164.2,137.7c0.1,2.5-0.6,4.9-2,7c-1.5,2.1-3.4,3.7-5.8,4.7c-2.8,1.2-5.8,1.8-8.9,1.7 c-2.4,0.1-4.7-0.2-7.1-0.6c-2.1-0.5-4.1-1.2-6-2.1v-10.3c2.2,1.1,4.4,2,6.8,2.6c2.1,0.6,4.4,0.9,6.4,0.9c1.7,0,3-0.3,3.7-0.9 c0.7-0.5,1.2-1.4,1.2-2.3c0-0.5-0.2-1.1-0.5-1.5c-0.5-0.5-0.9-1-1.5-1.3c-0.6-0.5-2.6-1.4-5.6-2.7c-2.2-0.9-4.4-2.2-6.3-3.6 c-1.4-1.1-2.4-2.5-3.1-4.1c-0.6-1.7-1.1-3.5-1-5.4c0-3.9,1.5-7,4.3-9.1c2.8-2.2,6.8-3.3,11.7-3.3c4.6,0.1,9.3,1.1,13.4,3l-3.4,8.8 c-3.9-1.8-7.4-2.8-10.3-2.8c-1.5,0-2.6,0.3-3.3,0.8c-0.6,0.5-1.1,1.2-1.1,2c0.1,0.9,0.5,1.7,1.3,2.2c0.9,0.6,3.2,1.8,7,3.5 c3.6,1.6,6.3,3.4,7.6,5.3C163.5,132.7,164.3,135.2,164.2,137.7z"></path> <line id="Line_1" class="st1" x1="168.4" y1="150.4" x2="168.4" y2="106.2"></line> <line id="Line_2" class="st1" x1="171.1" y1="150.4" x2="171.1" y2="106.2"></line> <path id="Path_4" class="st0" d="M183.1,113.3c0.1,0.7-0.3,1.5-0.9,1.9c-0.7,0.5-1.6,0.7-2.5,0.6h-1v3.3h-1v-8.3h2.2 C182.1,111,183.1,111.7,183.1,113.3z M178.9,115h0.9c0.6,0.1,1.3-0.1,1.8-0.5c0.5-0.3,0.6-0.8,0.5-1.3c0.1-0.5-0.2-0.9-0.5-1.3 c-0.5-0.3-1.1-0.5-1.6-0.4h-1.1V115z"></path> <path id="Path_5" class="st0" d="M187.6,112.9c0.3,0,0.5,0,0.7,0.1l-0.1,0.9c-0.3-0.1-0.5-0.1-0.6-0.1c-0.5,0-1,0.3-1.3,0.6 c-0.4,0.5-0.5,1-0.5,1.5v3.4h-0.9V113h0.8l0.1,1.1h0.1c0.2-0.4,0.5-0.6,0.8-0.9C186.8,113,187.1,112.9,187.6,112.9z"></path> <path id="Path_6" class="st0" d="M189.4,111.3c0-0.2,0.1-0.4,0.2-0.5c0.1-0.1,0.3-0.1,0.4-0.1c0.1,0,0.3,0.1,0.4,0.2 c0.1,0.1,0.2,0.3,0.2,0.5c0,0.2-0.1,0.4-0.2,0.5c-0.3,0.2-0.5,0.2-0.8,0C189.4,111.6,189.3,111.5,189.4,111.3z M190.4,119.2h-0.9 V113h0.9V119.2z"></path> <path id="Path_7" class="st0" d="M200.2,119.2v-4c0-0.4-0.1-0.8-0.3-1.1c-0.3-0.3-0.6-0.5-1-0.4c-0.5-0.1-1,0.1-1.3,0.5 c-0.3,0.5-0.5,1-0.5,1.5v3.4h-0.9v-4.1c0-0.4-0.1-0.8-0.3-1.1c-0.3-0.3-0.6-0.5-1-0.4c-0.5-0.1-1,0.1-1.3,0.5s-0.5,1.1-0.5,1.7v3.3 h-0.9V113h0.7l0.1,0.9h0.1c0.2-0.3,0.5-0.5,0.7-0.6c0.3-0.2,0.6-0.3,1.1-0.3c0.8-0.1,1.5,0.3,1.9,1.1h0.1c0.2-0.3,0.5-0.6,0.8-0.7 c0.4-0.2,0.8-0.3,1.2-0.3c0.5-0.1,1.2,0.1,1.6,0.5c0.4,0.5,0.5,1.1,0.5,1.7v4.1L200.2,119.2z"></path> <path id="Path_8" class="st0" d="M206.9,119.2l-0.2-0.9h-0.1c-0.3,0.3-0.5,0.6-0.9,0.8c-0.4,0.1-0.7,0.2-1.1,0.2 c-0.5,0.1-1.1-0.1-1.5-0.5c-0.4-0.4-0.5-0.9-0.5-1.4c0-1.3,1-1.9,3-2l1.1-0.1V115c0.1-0.4-0.1-0.7-0.3-1.1c-0.3-0.3-0.6-0.4-1-0.4 c-0.6,0-1.3,0.2-1.7,0.5l-0.5-0.7c0.3-0.2,0.6-0.3,1-0.4c0.4-0.1,0.7-0.1,1.1-0.1c0.6-0.1,1.2,0.1,1.6,0.5c0.4,0.5,0.6,1,0.5,1.6 v4.2L206.9,119.2L206.9,119.2z M204.8,118.5c0.5,0,1-0.1,1.4-0.5c0.4-0.4,0.5-0.9,0.5-1.4v-0.5l-0.9,0.1c-0.5,0-1.1,0.1-1.6,0.4 c-0.3,0.2-0.5,0.5-0.5,1c0,0.3,0.1,0.5,0.3,0.8C204.2,118.4,204.5,118.5,204.8,118.5L204.8,118.5z"></path> <path id="Path_9" class="st0" d="M212.4,112.9c0.3,0,0.5,0,0.7,0.1l-0.1,0.9c-0.3-0.1-0.5-0.1-0.6-0.1c-0.5,0-1,0.3-1.3,0.6 c-0.4,0.5-0.5,1-0.5,1.5v3.4h-0.9V113h0.7l0.1,1.1h0.1c0.2-0.4,0.5-0.6,0.8-0.9C211.6,113,212,112.9,212.4,112.9z"></path> <path id="Path_10" class="st0" d="M213.3,113h1l1.4,3.5c0.3,0.5,0.5,1.2,0.5,1.7h0.1c0.1-0.2,0.1-0.5,0.3-1 c0.2-0.5,0.6-1.9,1.5-4.4h1l-2.6,7c-0.2,0.5-0.5,1.1-0.9,1.5c-0.4,0.3-0.8,0.5-1.3,0.5c-0.3,0-0.5,0-0.9-0.1v-0.7 c0.3,0.1,0.5,0.1,0.6,0.1c0.6,0,1.3-0.5,1.4-1.1l0.4-0.9L213.3,113z"></path> <path id="Path_11" class="st0" d="M181.4,125.5c-0.8-0.1-1.6,0.3-2.2,0.9c-0.5,0.6-0.9,1.6-0.8,2.5c-0.1,0.9,0.2,1.8,0.7,2.5 c0.5,0.6,1.4,0.9,2.2,0.9c0.6,0,1.4-0.1,2-0.3v0.9c-0.6,0.3-1.5,0.4-2.1,0.3c-1.1,0.1-2.1-0.4-2.8-1.1c-0.7-0.9-1.1-2-1-3.2 c0-0.8,0.1-1.5,0.5-2.2c0.3-0.6,0.8-1.1,1.4-1.5c0.6-0.4,1.4-0.5,2.1-0.5c0.8,0,1.5,0.1,2.3,0.5l-0.5,0.8 C182.8,125.7,182.1,125.5,181.4,125.5z"></path> <path id="Path_12" class="st0" d="M188.9,133l-0.2-0.9h-0.1c-0.3,0.3-0.5,0.6-0.9,0.8c-0.4,0.1-0.7,0.2-1.1,0.2 c-0.5,0.1-1.1-0.1-1.5-0.5c-0.4-0.4-0.5-0.9-0.5-1.4c0-1.3,1-1.9,3-2l1.1-0.1v-0.4c0.1-0.4-0.1-0.7-0.3-1.1c-0.3-0.3-0.6-0.4-1-0.4 c-0.6,0-1.3,0.2-1.7,0.5l-0.3-0.7c0.3-0.2,0.6-0.3,1-0.4c0.4-0.1,0.7-0.1,1.1-0.1c0.6-0.1,1.2,0.1,1.6,0.5c0.4,0.5,0.6,1,0.5,1.6 v4.2C189.7,133,188.9,133,188.9,133z M186.8,132.4c0.5,0,1-0.1,1.4-0.5c0.4-0.4,0.5-0.9,0.5-1.4v-0.5l-0.9,0.1 c-0.5,0-1.1,0.1-1.6,0.4c-0.3,0.2-0.5,0.5-0.5,1c0,0.3,0.1,0.5,0.3,0.7C186.1,132.3,186.4,132.4,186.8,132.4L186.8,132.4z"></path> <path id="Path_13" class="st0" d="M194.3,126.8c0.3,0,0.5,0,0.7,0.1l-0.1,0.9c-0.3-0.1-0.5-0.1-0.6-0.1c-0.5,0-1,0.3-1.3,0.6 c-0.4,0.5-0.5,1-0.5,1.5v3.4h-0.9V127h0.7l0.1,1.1h0.1c0.2-0.4,0.5-0.6,0.9-0.9C193.5,126.8,193.9,126.8,194.3,126.8z"></path> <path id="Path_14" class="st0" d="M198.8,133.2c-0.8,0.1-1.6-0.3-2.2-0.9c-0.5-0.6-0.9-1.5-0.8-2.4c-0.1-0.9,0.3-1.7,0.7-2.4 c0.5-0.5,1.3-0.9,2-0.9c0.6-0.1,1.4,0.3,1.8,0.7c0.5,0.5,0.7,1.3,0.6,2v0.6h-4.3c0,0.6,0.2,1.2,0.5,1.6c0.4,0.4,0.9,0.6,1.5,0.5 c0.6,0,1.4-0.1,2-0.5v0.9c-0.3,0.1-0.6,0.3-0.9,0.3C199.6,133.1,199.2,133.2,198.8,133.2L198.8,133.2z M198.6,127.5 c-0.5,0-0.9,0.2-1.2,0.5c-0.3,0.4-0.5,0.9-0.5,1.4h3.3c0.1-0.5-0.1-1-0.4-1.4C199.5,127.7,199,127.5,198.6,127.5L198.6,127.5z"></path> <path id="Path_15" class="st0" d="M182.6,144.7c0.1,0.6-0.3,1.3-0.8,1.7c-0.6,0.5-1.4,0.6-2.2,0.6c-0.8,0.1-1.5-0.1-2.3-0.4v-0.9 c0.4,0.1,0.7,0.3,1.1,0.3c0.4,0.1,0.8,0.1,1.2,0.1c0.5,0.1,1-0.1,1.5-0.4c0.3-0.3,0.5-0.6,0.5-1c0-0.3-0.1-0.5-0.2-0.6 c-0.1-0.2-0.4-0.4-0.5-0.5c-0.4-0.2-0.8-0.4-1.3-0.5c-0.6-0.2-1.2-0.5-1.6-1c-0.4-0.5-0.5-0.9-0.5-1.5c0-0.6,0.3-1.2,0.7-1.5 c0.5-0.4,1.3-0.6,1.9-0.5c0.8,0,1.5,0.1,2.3,0.5L182,140c-0.6-0.3-1.3-0.5-2-0.5c-0.5,0-0.9,0.1-1.2,0.3s-0.5,0.5-0.5,0.9 c0,0.3,0.1,0.5,0.2,0.6c0.1,0.2,0.3,0.4,0.5,0.5c0.4,0.2,0.7,0.4,1.1,0.5c0.6,0.2,1.3,0.5,1.8,1 C182.4,143.7,182.6,144.3,182.6,144.7L182.6,144.7z"></path> <path id="Path_16" class="st0" d="M188.3,147v-4c0.1-0.5-0.1-0.8-0.4-1.1c-0.3-0.3-0.6-0.5-1.1-0.4c-0.5-0.1-1.1,0.1-1.5,0.5 c-0.4,0.5-0.5,1.1-0.5,1.7v3.3H184v-8.9h0.9v2.6c0,0.3,0,0.5-0.1,0.8h0.1c0.2-0.3,0.5-0.5,0.8-0.6c0.4-0.2,0.7-0.3,1.2-0.3 c0.6-0.1,1.3,0.1,1.7,0.5c0.5,0.5,0.6,1.1,0.5,1.7v4.1L188.3,147z"></path> <path id="Path_17" class="st0" d="M193.8,147c-0.8,0.1-1.6-0.3-2.2-0.9c-0.5-0.6-0.9-1.5-0.8-2.4c-0.1-0.9,0.3-1.7,0.7-2.4 c0.5-0.5,1.3-0.9,2-0.9c0.6-0.1,1.4,0.3,1.8,0.7c0.5,0.5,0.7,1.3,0.6,2v0.6h-4.3c0,0.6,0.2,1.2,0.5,1.6c0.4,0.4,0.9,0.6,1.5,0.5 c0.6,0,1.4-0.1,2-0.5v0.9c-0.3,0.1-0.6,0.3-0.9,0.3C194.6,147,194.2,147,193.8,147z M193.6,141.5c-0.5,0-0.9,0.2-1.2,0.5 c-0.3,0.4-0.5,0.9-0.5,1.4h3.2c0.1-0.5-0.1-1-0.4-1.4C194.5,141.6,194,141.5,193.6,141.5L193.6,141.5z"></path> <path id="Path_18" class="st0" d="M200.5,141.5h-1.6v5.4h-0.9v-5.4h-1.1V141l1.1-0.4v-0.4c0-1.5,0.6-2.3,2-2.3 c0.4,0,0.7,0.1,1.1,0.2l-0.3,0.7c-0.3-0.1-0.6-0.2-0.9-0.2s-0.6,0.1-0.8,0.4c-0.2,0.4-0.3,0.7-0.3,1.1v0.5h1.6L200.5,141.5z"></path> <path id="Path_19" class="st0" d="M204.4,141.5h-1.5v5.4h-0.9v-5.4h-1.1V141l1.1-0.4v-0.4c0-1.5,0.6-2.3,2-2.3 c0.4,0,0.8,0.1,1.2,0.2l-0.3,0.7c-0.3-0.1-0.6-0.2-0.9-0.2c-0.3,0-0.6,0.1-0.8,0.4c-0.2,0.4-0.3,0.7-0.3,1.1v0.5h1.6L204.4,141.5z"></path> <path id="Path_20" class="st0" d="M205.5,139.1c0-0.2,0.1-0.4,0.2-0.5c0.1-0.1,0.3-0.2,0.4-0.1c0.1,0,0.3,0.1,0.4,0.2 c0.3,0.3,0.3,0.6,0,0.9c-0.3,0.2-0.5,0.2-0.8,0C205.5,139.4,205.4,139.3,205.5,139.1z M206.5,147h-0.9v-6.2h0.9V147z"></path> <path id="Path_21" class="st0" d="M211.1,147c-0.8,0.1-1.6-0.3-2.2-0.9c-0.5-0.6-0.9-1.5-0.8-2.4c-0.1-0.9,0.2-1.7,0.7-2.4 c0.5-0.5,1.3-0.9,2-0.9c0.6-0.1,1.4,0.3,1.8,0.7c0.5,0.5,0.7,1.3,0.6,2v0.6H209c0,0.6,0.2,1.2,0.5,1.6c0.4,0.4,0.9,0.6,1.5,0.5 c0.6,0,1.4-0.1,2-0.5v0.9c-0.3,0.1-0.6,0.3-0.9,0.3C211.7,147,211.5,147,211.1,147z M210.8,141.5c-0.5,0-0.9,0.2-1.2,0.5 c-0.3,0.4-0.5,0.9-0.5,1.4h3.2c0.1-0.5-0.1-1-0.4-1.4C211.6,141.6,211.3,141.5,210.8,141.5L210.8,141.5z"></path> <path id="Path_22" class="st0" d="M215.9,147H215v-8.8h0.9V147z"></path> <path id="Path_23" class="st0" d="M222.1,146.1L222.1,146.1c-0.5,0.6-1.3,1-2,0.9c-0.7,0.1-1.5-0.3-1.9-0.8 c-0.5-0.6-0.7-1.5-0.6-2.4c-0.1-0.9,0.2-1.6,0.6-2.4c0.9-1.1,2.5-1.1,3.5-0.2c0.1,0.1,0.2,0.2,0.3,0.3h0.1l-0.1-0.5v-0.5v-2.5h0.9 v8.8h-0.7L222.1,146.1z M220.2,146.3c0.5,0.1,1.1-0.1,1.5-0.5c0.3-0.5,0.5-1.1,0.5-1.6v-0.3c0.1-0.6-0.1-1.3-0.5-1.9 c-0.4-0.4-0.9-0.6-1.5-0.5c-0.5,0-1,0.3-1.3,0.6c-0.3,0.5-0.5,1.2-0.5,1.8c-0.1,0.6,0.1,1.3,0.5,1.8 C219.2,146,219.7,146.3,220.2,146.3L220.2,146.3z"></path> <path id="Path_24" class="st2" d="M25.7,120.8v-3L40.8,129l-15.1,11.5v-2.8H13.1v-17.1L25.7,120.8L25.7,120.8z"></path> <path id="Path_25" class="st2" d="M26,108.2L53.7,129l-28,21.2h17v-12.4h12.9v-17.1H43.1v-12.4L26,108.2z"></path> </g> <g id="info"> </g> <rect x="13" y="10.5" class="st3" width="209.1" height="84.6"></rect> <path class="st0" d="M33.5,18.7h22.7l13.9,47.2h0.2l9.6-47.2h17.2L82.6,86.8H60L45.7,39.7h-0.2L36,86.8H18.9L33.5,18.7z"></path> <path class="st0" d="M103.8,18.7h18.3l-5.4,26.1h21.6l5.4-26.1H162l-14.2,68.1h-18.4l6.1-29.2H114l-6.1,29.2H89.7L103.8,18.7z"></path> <path class="st0" d="M209.9,34.1c-4.7-2.2-9.8-3.2-14.9-3.1c-7.2,0-13.1,1.1-13.1,6.5c0,9.7,26.4,6.1,26.4,26.7 c0,18.8-17.5,23.7-33.3,23.7c-7.2-0.2-14.3-1.3-21.2-3.5l4.2-13.9c3.6,2.3,10.8,3.9,16.8,3.9s14.5-1.1,14.5-8.1 c0-10.9-26.4-6.8-26.4-26.1c0-17.6,15.4-22.8,30.4-22.8c8.5,0,16.3,0.9,20.9,3L209.9,34.1z"></path> </svg> 