<?xml version="1.0" encoding="UTF-8"?> <!-- Generator: Adobe Illustrator 24.1.2, SVG Export Plug-In . SVG Version: 6.00 Build 0) --> <svg xmlns="http://www.w3.org/2000/svg" xmlns:xlink="http://www.w3.org/1999/xlink" id="Layer_1" x="0px" y="0px" viewBox="0 0 60 60" style="enable-background:new 0 0 60 60;" xml:space="preserve"> <style type="text/css"> .st0{fill-rule:evenodd;clip-rule:evenodd;fill:#FFFFFF;} </style> <g id="Home"> <g id="HEADER" transform="translate(-24.000000, -16.000000)"> <g> <g id="Logo_x2F_Sole_x2F_Dark" transform="translate(24.000000, 16.000000)"> <g id="logo" transform="translate(0.000000, 0.564103)"> <path id="Fill-1" class="st0" d="M19.1,22.3l-1.9,2.8c-0.2,0.3-0.1,0.7,0.2,0.9c0.3,0.2,0.7,0.1,0.9-0.2l1.9-2.8 c0,0,0-0.3-0.4-0.5C19.3,22.1,19.1,22.3,19.1,22.3"></path> <path id="Fill-3" class="st0" d="M19,7.3c0.4,0,0.8,0,1.2,0.1c1.5,0.2,2.6,0.8,3.5,1.7c0.6,0.7,1.1,1.5,1.3,2.5 c0.2,1,0.3,2,0.2,3.1c-0.2,2.6-1.2,5.1-2.9,7.2c-0.2,0.3-0.4,0.5-0.7,0.8c-0.3,0.3-0.6,0.5-0.9,0.5l0,0l0-0.2 c0-0.3-0.1-0.8-0.7-1.2c-0.3-0.2-0.6-0.3-0.9-0.3c-0.2,0-0.4,0.1-0.5,0.1l-0.2,0.1l0,0c0,0,0,0,0,0c-0.1-0.5,0.1-1,0.5-1.5 c1.1-1.4,2.1-3.3,2.4-4.8c0.2-0.8,0.2-1.5,0.1-2.2c-0.2-1-0.9-1.6-1.9-1.8c-0.3-0.1-0.7-0.1-1-0.1c-0.5,0-0.9,0.1-1.5,0.2 c-1.5,0.3-2.9,1-4.3,2C10.7,14.9,9.1,16.8,8,19c-0.5,1-0.9,2.1-1,3.1c-0.1,0.6-0.1,1.3-0.1,2.1c0.1,1.9,0.7,3.9,1.8,6.2 c0.5,1,0.9,1.9,1.4,2.8c0.2,0.4,0.4,0.9,0.7,1.3c0.2,0.4,1.3,2.9,1.9,4.4c-0.3,0.1-0.6,0.3-1,0.4c-0.9,0.4-1.9,0.8-2.6,1 c-0.3-0.6-1.6-2.9-1.8-3.2l0,0c-0.4-0.7-0.8-1.3-1.1-2c-1-1.9-1.8-3.6-2.3-5.4c-0.4-1.2-0.6-2.4-0.8-3.7c-0.1-1-0.2-2-0.1-3 c0.1-1.8,0.5-3.6,1.3-5.4c1-2.2,2.5-4.2,4.4-5.9c1.4-1.3,3-2.3,4.7-3.1c1.3-0.6,2.7-1,4-1.2C17.9,7.3,18.5,7.3,19,7.3"></path> <path id="Fill-6" class="st0" d="M57.4,38.1l2.1-2.7c0.2-0.3,0.2-0.7-0.1-0.9c-0.3-0.2-0.7-0.2-0.9,0.1l-2.1,2.7 c0,0,0,0.3,0.3,0.6C57.2,38.2,57.4,38.1,57.4,38.1"></path> <path id="Fill-9" class="st0" d="M57.9,38.7l-0.1,0.1c-0.1,0-0.2,0.1-0.4,0.1c-0.2,0-0.6-0.1-1-0.4c-0.5-0.4-0.7-0.9-0.6-1.3 l0-0.2c-0.3,0.1-0.6,0.3-0.9,0.5c-2.5,2.9-4.7,3.6-6.1,3.6c-0.1,0-0.2,0-0.2,0c-1.4,0-2-0.7-2.1-0.9c-1-1.3-0.6-3.7-0.6-3.7 c0.1-0.5,0.2-1.1,0.3-1.6l0,0c0.9-2.7,3.1-4.3,3.1-4.3c0.5-0.4,1-0.6,1.4-0.8c0,0,0.6-0.2,0.8,0c0.1,0.1,0.2,0.4,0.1,0.8 c-0.2,0.4-0.4,0.8-0.8,1.2c0,0,0,0.1-0.1,0.1c0,0-0.1,0.1-0.1,0.1c0,0-0.1,0.1-0.1,0.1c0,0.1-0.1,0.1-0.1,0.2 c0,0,0,0.1-0.1,0.1c-0.1,0.1-0.1,0.2-0.2,0.2l0,0l0,0c-0.6,0.7-1.3,1.3-1.9,1.9c-0.5,0.4-1,0.8-1.5,1.2h0 c-0.1,0.3-0.1,0.5-0.1,0.8l0,0l0,0c-0.1,0.5-0.2,2.3,0.5,3.1c0,0,0,0,0.1,0.1c1.8-1.3,3.8-2.9,5.5-4.8c0,0,0.1-0.1,0.1-0.1 c0,0,0,0,0,0c0,0,0.1-0.1,0.1-0.1c0,0,0,0,0,0c0,0,0.1-0.1,0.1-0.1c0,0,0,0,0,0c0,0,0.1-0.1,0.1-0.1c0,0,0,0,0,0 c0-0.1,0.1-0.1,0.1-0.2c0,0,0,0,0,0c0-0.1,0.1-0.1,0.1-0.2c0,0,0,0,0,0c0.1-0.1,0.1-0.1,0.2-0.2c0,0,0,0,0,0 c0-0.1,0.1-0.1,0.1-0.2c0,0,0,0,0,0h0c0.8-1.2,1.6-2.8,1.4-4.4c-0.1-1-0.7-1.8-1.5-2.3l0,0c-0.7-0.4-1.4-0.6-2.2-0.6 c-1.2,0-2.6,0.5-4.1,1.4C47.1,28,44,30,42.9,34c-0.5,1.8-0.7,3.4-0.5,4.8c0,0,0.1,1.6,1.2,3.3c0.1,0.1,0.1,0.2,0.2,0.3 c0.3,0.5,1.6,2,4.6,2.1c0.1,0,0.3,0,0.4,0c2.2,0,5.3-0.9,8.6-4.8C57.7,39.4,57.8,39.1,57.9,38.7"></path> <path id="Fill-11" class="st0" d="M13.5,44c-0.4,0.2-0.8,0.4-1.2,0.5l-1,0.4c-1.5,0.6-2.9,1.3-3.4,1.4 c-0.6,0.3-1.2,0.7-1.7,1.2c-0.1,0.1-0.6,0.7-0.8,0.9c-0.1,0.1-0.1,0.2-0.2,0.2C4.9,49.3,4.6,49,4.6,49c-0.3-0.2,0-0.5,0-0.5 C5,48,5.4,47.5,5.8,47.1c0.5-0.6,1.2-1,1.9-1.3c0.5-0.2,2.4-1,4.3-1.9c1.4-0.6,3-1.3,3.9-1.7c0,0.1,0.1,0.4,0.1,0.5 c0.7,2.3,2.2,4,4.1,4.6c0.5,0.2,1.1,0.3,1.7,0.3c1.5,0,3-0.6,4.3-1.6c1.7-1.3,3-3.4,3.8-5.7c0.1-0.2,0.1-0.3,0.1-0.6 c0.1-0.1,0.3-0.2,0.5-0.2c0.5-0.3,1-0.6,1.5-0.9c0.1,1,0.6,3.1,1.3,4.4c0.6,1.1,1.6,1.7,2.9,1.8c1.9,0.1,3.5-0.4,5.5-1.5 c0.1-0.1,0.6-0.3,1.3-0.7c-0.8-1.4-1.1-2.6-1.2-3.2c-1,0.6-1.6,0.9-1.6,0.9l-0.1,0c-1.5,0.8-2.7,1.1-3.5,0.8 c-0.6-0.2-0.8-0.8-0.8-0.8C35.2,39,35,36.3,35.9,31c0.4-2.1,1-4.2,1.7-6.3c0.8-2.4,1.8-4.8,2.9-7.2c0.2-0.4,0.4-0.7,0.7-0.7 c0.1,0,0.2,0.1,0.2,0.3c0,0.2-0.1,0.5-0.2,0.8c-1,2.1-2,4.6-2.9,7.1c-0.8,2.4-1.3,4.4-1.6,6.1c-0.2,1.5-0.4,2.7-0.5,3.7h0 c1.7-3.1,8.8-12.9,8.7-18.9c-0.1-2.3-1.9-2.7-2.6-2.8c-4.8-0.8-9.4,11.7-10.2,21.1c-0.3,0.3-0.7,0.6-1.1,0.8 c-0.2,0.1-0.3,0.2-0.5,0.3c-0.3-3.1-1.9-5.7-4.4-6.5c-0.6-0.2-1.1-0.3-1.7-0.3c-3.3,0-6.6,2.9-8,7.3c-0.3,0.9-0.5,1.7-0.5,2.6 l-0.1,0l0.1,0l-0.1,0c-0.2,0.1-0.4,0.1-0.6,0.2c-0.3,0.1-0.7,0.2-0.8,0.3c-0.1,0-0.9,0.4-2.3,0.9c-1.5,0.6-3.1,1.3-3.2,1.3 c-0.2,0.1-0.4,0.2-0.6,0.3C6.4,42.3,5,43,3.6,43.8C2.9,44.3,1.9,45,1.1,46c-0.7,0.9-1.1,1.8-1.1,2.7C-0.1,50,0.5,51,1.6,51.6 c0.6,0.3,1.2,0.4,1.7,0.5c0.3,0,0.5,0.1,0.7,0.1c0.7,0,1.3-0.1,1.9-0.4c0.9-0.4,1.8-1,2.7-1.9C10.4,48.4,12.3,45.9,13.5,44 M26.1,39L26.1,39c-0.5,1.6-1.3,3-2.4,3.8c-0.4,0.3-1.1,0.8-1.9,0.8c-0.2,0-0.3,0-0.5-0.1c-0.9-0.3-1.4-1.3-1.6-1.9 c-0.4-1.3-0.3-2.9,0.1-4.5c0.9-2.9,2.8-4.6,4.3-4.6c0.2,0,0.3,0,0.5,0.1C26.2,33,27.1,35.8,26.1,39"></path> </g> </g> </g> </g> </g> </svg> 